<svg width="66" height="66" viewBox="0 0 66 66" fill="none" xmlns="http://www.w3.org/2000/svg">
<g opacity="0.7">
<path d="M57.75 46.75C57.75 52.8247 52.8247 57.75 46.75 57.75H19.25C13.1752 57.75 8.25 52.8247 8.25 46.75V19.25C8.25 13.1752 13.1752 8.25 19.25 8.25H46.75C52.8247 8.25 57.75 13.1752 57.75 19.25V46.75Z" fill="url(#paint0_linear_214_533)"/>
<path opacity="0.05" d="M54.6769 30.2404C54.0045 29.1115 52.1166 28.875 50.6509 28.875C48.7589 28.875 46.9274 29.4126 45.5978 30.3696C44.9309 30.8742 44.6504 31.6525 44.8855 32.351C44.9694 32.5999 45.1248 32.802 45.3104 32.9752C43.5009 33.5197 41.6226 33.9267 39.7691 34.3104C37.9789 34.683 35.8641 34.8645 33.3066 34.8645C32.3813 34.8645 31.4669 34.8411 30.5773 34.8067C27.3969 34.6871 24.7514 34.2842 22.0248 33.5087C21.4349 33.3273 20.845 33.1554 20.2565 32.9821C17.8736 32.285 15.6228 31.625 13.4915 30.47C12.7958 30.0877 11.869 30.2761 11.3768 30.8866C11.0921 31.2359 10.9615 31.6772 11.0083 32.1255C11.055 32.5724 11.2723 32.9752 11.6229 33.2599C14.2656 35.3994 17.1573 36.5599 20.218 37.7877L20.5013 37.9019C23.7463 39.1586 27.1576 39.8214 30.6405 39.875C31.4201 39.886 32.2011 39.8984 32.9821 39.8984C35.3471 39.8984 38.1356 39.8035 40.8815 39.1022C43.6439 38.3872 46.7363 37.576 49.5399 35.8394C49.434 36.1377 49.3268 36.4402 49.2003 36.7799C48.9734 37.3491 49.0201 37.9362 49.3281 38.39C49.6169 38.8162 50.105 39.0692 50.6344 39.0692C51.0455 39.0692 51.4566 38.9235 51.8925 38.5907C54.3744 36.4595 55.6229 31.8395 54.6769 30.2404Z" fill="black"/>
<path opacity="0.07" d="M54.0856 30.5924C53.5521 29.6973 51.7055 29.5625 50.6509 29.5625C48.8991 29.5625 47.2134 30.052 46.013 30.9169C45.5785 31.2455 45.3956 31.7116 45.5372 32.1324C45.639 32.4362 45.9731 32.7456 46.5987 32.7553L46.7885 32.7305C47.2587 32.6714 47.8747 32.5957 48.5059 32.5435C45.8095 33.7576 42.8202 34.3819 39.908 34.9814C38.071 35.3636 35.9109 35.5506 33.3052 35.5506C32.3716 35.5506 31.4476 35.5273 30.5511 35.4929C27.3144 35.3705 24.618 34.9594 21.8226 34.1646C21.2355 33.9845 20.6484 33.8126 20.0626 33.6408C17.644 32.9326 15.3601 32.263 13.1601 31.0722C12.749 30.8467 12.2004 30.9581 11.9075 31.3198C11.7397 31.526 11.6614 31.7873 11.6902 32.0526C11.7177 32.318 11.847 32.5559 12.0546 32.725C14.6162 34.7999 17.4625 35.9411 20.4737 37.1498L20.7487 37.2598C23.9195 38.4863 27.2497 39.1353 30.6501 39.1861C31.4256 39.1971 32.2039 39.2095 32.9807 39.2095C35.3031 39.2095 38.038 39.1174 40.7083 38.4354C43.6989 37.6613 47.0896 36.784 50.0074 34.716C50.5216 34.3544 50.7031 33.6751 50.4391 33.1004C50.3126 32.8281 50.105 32.6233 49.8575 32.4885C50.7691 32.505 51.0166 32.6508 51.0249 32.6274C51.1252 32.9175 51.0029 33.9048 49.8369 37.0329C49.6444 37.5183 49.7901 37.8483 49.8946 38.0036C50.0582 38.2443 50.3264 38.3818 50.6316 38.3818C50.8915 38.3818 51.1596 38.2828 51.4401 38.0696C53.9096 35.9508 54.7965 31.4353 54.0856 30.5924Z" fill="black"/>
<path opacity="0.05" d="M23.3503 8.25V19.25C23.3503 20.7666 24.5836 22 26.1003 22H33.5734L42.6498 12.9456V8.25H23.3503Z" fill="black"/>
<path opacity="0.07" d="M24.0378 8.25V19.25C24.0378 20.3871 24.9631 21.3125 26.1002 21.3125H33.2887L41.9622 12.661V8.25H24.0378Z" fill="black"/>
<path d="M46.7775 37.8084L46.0831 36.9889V30.25H53.9275V37.8084H46.7775Z" fill="#343434"/>
<path d="M12.8521 31.6897C15.6434 33.1994 18.6258 33.9062 21.6219 34.8247C24.6414 35.6841 27.434 36.0649 30.525 36.1818C33.6091 36.2987 37.0054 36.2904 40.0483 35.6566C43.0788 35.0309 46.1354 34.4026 48.9459 33.1073L48.994 33.0853C49.3061 32.9423 49.6733 33.0784 49.8163 33.3892C49.9428 33.6642 49.8506 33.9846 49.6114 34.1537C46.8641 36.1021 43.7594 36.9353 40.5364 37.7699C37.3189 38.5936 33.9735 38.5496 30.6625 38.5001C27.3199 38.4492 24.0694 37.8084 20.999 36.6204C17.9383 35.3912 15.0466 34.2623 12.4891 32.1929C12.3558 32.0843 12.3351 31.8891 12.4438 31.7557C12.5386 31.6374 12.705 31.6086 12.8315 31.6773L12.8521 31.6897Z" fill="url(#paint1_linear_214_533)"/>
<path d="M33.0055 20.625H26.1016C25.3426 20.625 24.7266 20.009 24.7266 19.25V8.25H41.2748V12.375L33.0055 20.625Z" fill="url(#paint2_linear_214_533)"/>
<path d="M33.0247 20.625V15.125C33.0247 13.6056 34.2554 12.375 35.7747 12.375H41.2747L33.0247 20.625Z" fill="url(#paint3_linear_214_533)"/>
</g>
<defs>
<linearGradient id="paint0_linear_214_533" x1="16.3116" y1="6.65088" x2="47.6231" y2="56.089" gradientUnits="userSpaceOnUse">
<stop stop-color="#E2BF85"/>
<stop offset="1" stop-color="#CAA36F"/>
</linearGradient>
<linearGradient id="paint1_linear_214_533" x1="15.9046" y1="14.7565" x2="31.0296" y2="32.6315" gradientUnits="userSpaceOnUse">
<stop stop-color="#4C4C4C"/>
<stop offset="1" stop-color="#343434"/>
</linearGradient>
<linearGradient id="paint2_linear_214_533" x1="26.3202" y1="6.54637" x2="40.9296" y2="22.8745" gradientUnits="userSpaceOnUse">
<stop stop-color="#00B3EE"/>
<stop offset="1" stop-color="#0082D8"/>
</linearGradient>
<linearGradient id="paint3_linear_214_533" x1="35.0405" y1="14.267" x2="40.8842" y2="20.4545" gradientUnits="userSpaceOnUse">
<stop stop-color="#00B3EE"/>
<stop offset="1" stop-color="#0082D8"/>
</linearGradient>
</defs>
</svg>
