<svg width="238" height="121" viewBox="0 0 238 121" fill="none" xmlns="http://www.w3.org/2000/svg">
<g opacity="0.6" clip-path="url(#clip0_15_797)">
<path d="M189.192 115.359C189.444 117.314 190.368 119.102 191.354 120.825C191.386 120.884 191.42 120.941 191.454 121H201.701C201.909 120.947 202.113 120.888 202.317 120.825C203.474 120.475 204.567 119.942 205.552 119.245C209.322 116.549 210.773 111.455 210.118 106.89C209.71 104.054 208.456 101.158 206.014 99.6309C204.688 98.8293 203.106 98.5542 201.585 98.8606C201.546 98.8676 201.507 98.8763 201.468 98.8842C200.834 99.0057 200.234 99.259 199.706 99.6272C199.179 99.9955 198.735 100.47 198.406 101.021C197.242 103.073 197.935 105.616 198.507 107.901C199.078 110.185 199.387 112.92 197.731 114.605C197.974 113.9 198.023 113.144 197.874 112.414C197.725 111.684 197.383 111.007 196.882 110.452C196.382 109.897 195.742 109.484 195.028 109.256C194.313 109.028 193.551 108.993 192.818 109.154C192.699 109.18 192.58 109.209 192.464 109.244C192.183 109.325 191.911 109.438 191.655 109.58C189.702 110.662 188.911 113.156 189.192 115.359Z" fill="#F2F2F2"/>
<path d="M195.268 120.825C194.984 120.891 194.7 120.948 194.413 121H195.962C196.165 120.946 196.367 120.888 196.567 120.825C197.007 120.688 197.441 120.532 197.867 120.355C199.597 119.658 201.133 118.558 202.346 117.149C202.929 116.46 203.405 115.688 203.759 114.859C204.142 113.922 204.386 112.934 204.482 111.927C204.658 109.846 204.517 107.75 204.066 105.71C203.641 103.607 202.955 101.565 202.023 99.6292C201.911 99.3972 201.795 99.1667 201.676 98.9377C201.668 98.9188 201.655 98.9021 201.639 98.8887C201.624 98.8754 201.605 98.8658 201.585 98.8606C201.544 98.8528 201.502 98.8613 201.468 98.8843C201.426 98.9078 201.396 98.9461 201.382 98.9914C201.369 99.0367 201.373 99.0855 201.394 99.1276C202.355 100.986 203.083 102.955 203.562 104.989C204.056 106.984 204.273 109.036 204.207 111.09C204.171 112.999 203.571 114.857 202.48 116.43C201.419 117.847 200.024 118.983 198.416 119.74C197.411 120.217 196.355 120.581 195.268 120.825Z" fill="white"/>
<path d="M191.868 121H192.325C192.376 120.942 192.425 120.884 192.474 120.825C193.514 119.57 194.219 118.075 194.523 116.478C194.892 114.485 194.605 112.427 193.704 110.609C193.452 110.099 193.156 109.612 192.819 109.154C192.699 109.18 192.58 109.209 192.464 109.244C193.352 110.412 193.95 111.771 194.207 113.212C194.437 114.562 194.361 115.946 193.984 117.263C193.606 118.58 192.937 119.797 192.026 120.825C191.975 120.884 191.922 120.942 191.868 121Z" fill="white"/>
<path d="M96.8302 70.481H64.7593L64.4193 60.6934C64.4046 60.2691 64.4827 59.8467 64.6482 59.4552C64.8137 59.0638 65.0627 58.7126 65.3781 58.4258C65.6934 58.139 66.0676 57.9234 66.475 57.7939C66.8823 57.6645 67.313 57.6241 67.7376 57.6757L86.4007 59.9441H86.403C89.1698 59.9515 91.8209 61.0472 93.7754 62.9911C95.7299 64.9351 96.8284 67.5688 96.8302 70.3151V70.481Z" fill="#6C63FF"/>
<path d="M82.5361 35.7628H60.1682C59.8708 35.7627 59.5762 35.8208 59.3013 35.9338C59.0265 36.0468 58.7767 36.2124 58.5664 36.4212C58.356 36.63 58.1892 36.8778 58.0754 37.1507C57.9616 37.4235 57.9031 37.7159 57.9031 38.0111V60.2133C57.9031 60.5086 57.9616 60.801 58.0754 61.0738C58.1892 61.3466 58.356 61.5945 58.5664 61.8033C58.7767 62.0121 59.0265 62.1777 59.3013 62.2906C59.5762 62.4036 59.8708 62.4617 60.1682 62.4616H82.5361C82.8336 62.4617 83.1282 62.4036 83.403 62.2907C83.6779 62.1777 83.9276 62.0121 84.138 61.8033C84.3483 61.5945 84.5152 61.3466 84.629 61.0738C84.7428 60.801 84.8013 60.5086 84.8012 60.2133V38.0111C84.8013 37.7159 84.7428 37.4235 84.629 37.1507C84.5152 36.8778 84.3483 36.6299 84.138 36.4212C83.9276 36.2124 83.6779 36.0468 83.403 35.9338C83.1282 35.8208 82.8336 35.7627 82.5361 35.7628Z" fill="#CCCCCC"/>
<path d="M77.4985 52.3648L66.9377 54.4061C66.3113 54.5265 65.6623 54.3953 65.1332 54.0413C64.6041 53.6873 64.238 53.1395 64.1154 52.5179L63.3036 48.3801C63.1823 47.7583 63.3145 47.1141 63.6711 46.5889C64.0277 46.0637 64.5797 45.7004 65.2058 45.5787L75.7667 43.5373C76.3931 43.4169 77.0421 43.5481 77.5712 43.9021C78.1003 44.2561 78.4663 44.804 78.589 45.4255L79.4008 49.5634C79.5221 50.1852 79.3899 50.8293 79.0333 51.3545C78.6766 51.8797 78.1247 52.243 77.4985 52.3648Z" fill="#3F3D56"/>
<path d="M75.3856 47.4762L67.326 49.0341C67.1786 49.0626 67.0258 49.0318 66.9013 48.9485C66.7767 48.8652 66.6906 48.7362 66.6619 48.5898C66.6332 48.4435 66.6643 48.2918 66.7482 48.1682C66.8321 48.0446 66.9621 47.9592 67.1095 47.9307L75.1691 46.3728C75.3165 46.3443 75.4693 46.3751 75.5939 46.4584C75.7184 46.5417 75.8045 46.6708 75.8332 46.8171C75.8619 46.9634 75.8309 47.1151 75.747 47.2387C75.663 47.3623 75.533 47.4477 75.3856 47.4762Z" fill="white"/>
<path d="M73.819 49.7833L69.6503 50.5891C69.5029 50.6176 69.3501 50.5868 69.2255 50.5035C69.101 50.4202 69.0149 50.2911 68.9862 50.1448C68.9575 49.9985 68.9885 49.8468 69.0725 49.7232C69.1564 49.5996 69.2864 49.5142 69.4338 49.4857L73.6025 48.6799C73.6755 48.6657 73.7506 48.666 73.8235 48.6807C73.8964 48.6954 73.9656 48.7242 74.0273 48.7655C74.0889 48.8067 74.1418 48.8596 74.1829 48.9212C74.224 48.9827 74.2524 49.0517 74.2666 49.1241C74.2808 49.1966 74.2805 49.2711 74.2657 49.3434C74.2509 49.4158 74.2219 49.4845 74.1804 49.5457C74.1388 49.6069 74.0855 49.6594 74.0235 49.7002C73.9615 49.7409 73.892 49.7692 73.819 49.7833Z" fill="white"/>
<path d="M84.8012 38.0111V40.9621H57.9031V38.0111C57.9031 37.7159 57.9616 37.4235 58.0754 37.1507C58.1892 36.8778 58.356 36.63 58.5664 36.4212C58.7767 36.2124 59.0265 36.0468 59.3013 35.9338C59.5762 35.8208 59.8708 35.7627 60.1682 35.7628H82.5361C82.8336 35.7627 83.1282 35.8208 83.403 35.9338C83.6779 36.0468 83.9276 36.2124 84.1379 36.4212C84.3483 36.63 84.5151 36.8778 84.629 37.1507C84.7428 37.4235 84.8013 37.7159 84.8012 38.0111Z" fill="#B3B3B3"/>
<path d="M138.514 41.8862C138.359 41.3886 138.095 40.9309 137.743 40.5453C137.39 40.1597 136.956 39.8555 136.472 39.6543C135.988 39.453 135.466 39.3595 134.941 39.3804C134.417 39.4013 133.904 39.5361 133.437 39.7752L102.664 28.8162L101.309 36.4468L131.984 44.8197C132.441 45.5705 133.159 46.1289 134.003 46.3892C134.846 46.6494 135.757 46.5935 136.562 46.2319C137.367 45.8703 138.01 45.2282 138.37 44.4272C138.73 43.6263 138.781 42.7221 138.514 41.8862Z" fill="#FFB8B8"/>
<path opacity="0.2" d="M138.514 41.8862C138.359 41.3886 138.095 40.9309 137.743 40.5453C137.39 40.1597 136.956 39.8555 136.472 39.6543C135.988 39.453 135.466 39.3595 134.941 39.3804C134.417 39.4013 133.904 39.5361 133.437 39.7752L102.664 28.8162L101.309 36.4468L131.984 44.8197C132.441 45.5705 133.159 46.1289 134.003 46.3892C134.846 46.6494 135.757 46.5935 136.562 46.2319C137.367 45.8703 138.01 45.2282 138.37 44.4272C138.73 43.6263 138.781 42.7221 138.514 41.8862Z" fill="black"/>
<path d="M108.127 30.2066L105.221 37.7421C105.138 37.9565 105.01 38.1507 104.845 38.3114C104.679 38.4722 104.481 38.5957 104.264 38.6737C104.046 38.7516 103.814 38.782 103.584 38.763C103.353 38.7439 103.13 38.6758 102.928 38.5632L95.8657 34.6176C94.7631 34.1915 93.8757 33.3487 93.3981 32.2741C92.9205 31.1995 92.8917 29.9808 93.3179 28.8851C93.7441 27.7894 94.5907 26.9062 95.6719 26.4291C96.7532 25.952 97.9809 25.9199 99.086 26.3398L106.972 28.076C107.198 28.1257 107.41 28.2232 107.595 28.3618C107.779 28.5004 107.931 28.6768 108.041 28.879C108.15 29.0812 108.215 29.3044 108.23 29.5335C108.244 29.7626 108.209 29.9922 108.127 30.2066Z" fill="#6C63FF"/>
<path d="M140.936 48.8635L129.91 53.8384L131.357 59.2481C134.153 69.6947 134.895 80.5781 133.543 91.3032L141.605 92.9745L148.287 76.0598L145.948 56.8234L140.936 48.8635Z" fill="#6C63FF"/>
<path d="M162.572 73.9039C155.327 73.9039 149.423 79.1316 149.136 85.6779H176.007C175.721 79.1316 169.817 73.9039 162.572 73.9039Z" fill="#3F3D56"/>
<path d="M156.932 75.0322C156.555 45.4816 139.6 48.2002 139.6 48.2002C139.6 48.2002 139.917 57.3983 140.069 57.6843C150.874 77.9753 133.042 101.764 110.344 97.3872C109.916 97.3047 109.505 97.221 109.111 97.1361C106.235 96.5401 103.696 94.8791 102.01 92.4909C100.324 90.1026 99.6175 87.1666 100.035 84.28C102.271 66.4579 91.1498 66.7733 91.1498 66.7733H74.8885L66.4438 59.2293C66.1457 58.963 65.7864 58.7733 65.3974 58.6767C65.0083 58.58 64.6014 58.5795 64.2121 58.6751C63.8228 58.7707 63.463 58.9595 63.1642 59.225C62.8654 59.4905 62.6367 59.8246 62.498 60.1981L61.4116 63.125C61.4116 63.125 45.373 64.7833 46.7096 80.3714H51.6681C51.6561 80.8143 51.674 81.2575 51.7216 81.6981L88.7276 81.3994C90.8968 81.3819 92.8116 83.1266 92.8205 85.2798C92.8227 85.804 92.7184 86.3233 92.5138 86.8065C92.3091 87.2898 92.0084 87.7271 91.6296 88.0923C91.2507 88.4576 90.8016 88.7432 90.309 88.9322C89.8164 89.1211 89.2904 89.2095 88.7626 89.1921L82.7964 88.9946C80.9587 97.1204 85.4695 102.593 90.4398 106.034C95.1194 109.227 100.672 110.919 106.351 110.884H122.559C143.609 110.884 147.285 93.3063 147.285 93.3063C158.311 88.663 156.932 75.0322 156.932 75.0322Z" fill="#3F3D56"/>
<path d="M161.569 120.502C171.95 120.502 180.365 112.15 180.365 101.846C180.365 91.5431 171.95 83.1905 161.569 83.1905C151.189 83.1905 142.774 91.5431 142.774 101.846C142.774 112.15 151.189 120.502 161.569 120.502Z" fill="#3F3D56"/>
<path d="M161.569 106.419C164.114 106.419 166.176 104.372 166.176 101.847C166.176 99.3212 164.114 97.274 161.569 97.274C159.025 97.274 156.963 99.3212 156.963 101.847C156.963 104.372 159.025 106.419 161.569 106.419Z" fill="white"/>
<path d="M66.6743 120.503C78.6232 120.503 88.3097 110.888 88.3097 99.0274C88.3097 87.167 78.6232 77.5522 66.6743 77.5522C54.7254 77.5522 45.0388 87.167 45.0388 99.0274C45.0388 110.888 54.7254 120.503 66.6743 120.503Z" fill="#3F3D56"/>
<path d="M66.6742 104.291C69.6029 104.291 71.977 101.934 71.977 99.0274C71.977 96.1204 69.6029 93.7639 66.6742 93.7639C63.7456 93.7639 61.3715 96.1204 61.3715 99.0274C61.3715 101.934 63.7456 104.291 66.6742 104.291Z" fill="white"/>
<path d="M129.941 55.3084L125.974 44.6124C125.767 44.055 125.673 43.4626 125.697 42.869C125.721 42.2755 125.862 41.6924 126.113 41.1531C126.364 40.6138 126.719 40.1289 127.159 39.7259C127.599 39.323 128.114 39.01 128.676 38.8048L140.05 34.6486C141.038 34.2874 142.088 34.123 143.14 34.1647C144.193 34.2063 145.226 34.4533 146.182 34.8914C147.138 35.3296 147.998 35.9504 148.712 36.7183C149.427 37.4863 149.981 38.3864 150.345 39.3672C150.673 40.2476 150.841 41.1789 150.84 42.1175C150.836 43.3094 150.564 44.4853 150.045 45.5599C149.525 46.6344 148.771 47.5806 147.837 48.3296C147.162 48.8668 146.404 49.2913 145.592 49.5862L129.941 55.3084Z" fill="#3F3D56"/>
<path d="M150.673 42.1175C150.672 43.285 150.408 44.4375 149.899 45.4902C149.39 46.5429 148.65 47.4689 147.733 48.2001C146.326 47.8318 145.017 47.1637 143.896 46.2424C142.776 45.3211 141.871 44.1686 141.244 42.8651C140.618 41.5615 140.285 40.1382 140.269 38.6941C140.252 37.2499 140.553 35.8196 141.15 34.5025C142.296 34.2551 143.484 34.2657 144.625 34.5333C145.767 34.801 146.833 35.3191 147.746 36.0494C148.66 36.7798 149.397 37.7039 149.903 38.7539C150.41 39.804 150.673 40.9533 150.673 42.1175Z" fill="#6C63FF"/>
<path d="M49.5497 82.5272C52.1332 82.5272 54.2276 80.0028 54.2276 76.8889C54.2276 73.775 52.1332 71.2507 49.5497 71.2507C46.9661 71.2507 44.8718 73.775 44.8718 76.8889C44.8718 80.0028 46.9661 82.5272 49.5497 82.5272Z" fill="#6C63FF"/>
<path d="M111.386 96.847H115.482L117.431 86.3011L111.385 86.3015L111.386 96.847Z" fill="#FFB8B8"/>
<path d="M110.341 95.5195L118.408 95.5192H118.408C119.083 95.5191 119.752 95.6511 120.376 95.9076C121 96.164 121.566 96.5399 122.044 97.0138C122.521 97.4876 122.9 98.0502 123.158 98.6693C123.417 99.2885 123.55 99.952 123.55 100.622V100.788L110.341 100.789L110.341 95.5195Z" fill="#2F2E41"/>
<path d="M116.141 92.5187C116.093 92.5187 116.045 92.5164 115.997 92.5119L110.328 92.1022C110.098 92.081 109.877 92.008 109.681 91.8885C109.484 91.7691 109.318 91.6065 109.195 91.4132C109.072 91.22 108.996 91.0014 108.971 90.7741C108.947 90.5468 108.976 90.3171 109.055 90.1025L116.642 73.1829C116.696 73.032 116.718 72.8717 116.707 72.7119C116.696 72.5521 116.651 72.3964 116.576 72.2546C116.502 72.1111 116.397 71.9848 116.27 71.8842C116.142 71.7837 115.995 71.711 115.837 71.6709C112.27 70.7453 103.116 68.2805 95.1923 65.3966C91.7975 64.1609 89.6594 62.3753 88.8374 60.0893C87.7537 57.0755 89.3569 54.327 89.4256 54.2117L89.4794 54.1213L96.9356 54.7941L105.019 55.4765L122.733 64.9049C124.217 65.7016 125.344 67.0241 125.89 68.6089C126.436 70.1936 126.361 71.9244 125.679 73.4565L117.513 91.6341C117.394 91.8974 117.202 92.121 116.958 92.278C116.715 92.435 116.431 92.5186 116.141 92.5187Z" fill="#2F2E41"/>
<path d="M98.232 21.3196C102.765 21.3196 106.439 17.6726 106.439 13.1737C106.439 8.67478 102.765 5.02771 98.232 5.02771C93.6996 5.02771 90.0253 8.67478 90.0253 13.1737C90.0253 17.6726 93.6996 21.3196 98.232 21.3196Z" fill="#FFB8B8"/>
<path d="M109.047 97.842H113.143L115.092 87.2961L109.046 87.2965L109.047 97.842Z" fill="#FFB8B8"/>
<path d="M108.002 96.5145L116.069 96.5142H116.069C116.744 96.5141 117.413 96.6461 118.037 96.9026C118.661 97.159 119.227 97.5349 119.705 98.0088C120.182 98.4826 120.561 99.0452 120.819 99.6643C121.078 100.283 121.211 100.947 121.211 101.617V101.783L108.002 101.784L108.002 96.5145Z" fill="#2F2E41"/>
<path d="M113.802 93.5137C113.754 93.5137 113.706 93.5114 113.658 93.5069L107.989 93.0972C107.759 93.0761 107.538 93.003 107.342 92.8835C107.145 92.7641 106.979 92.6015 106.856 92.4083C106.733 92.215 106.657 91.9964 106.632 91.7691C106.608 91.5419 106.637 91.3121 106.716 91.0975L114.303 74.1779C114.357 74.027 114.379 73.8667 114.368 73.7069C114.357 73.5472 114.312 73.3914 114.237 73.2496C114.163 73.1061 114.058 72.9798 113.931 72.8793C113.804 72.7787 113.656 72.706 113.499 72.6659C109.931 71.7403 100.777 69.2755 92.8534 66.3916C89.4586 65.1559 87.3204 63.3703 86.4985 61.0843C85.4148 58.0705 87.0179 55.322 87.0867 55.2067L87.1405 55.1163L94.5967 55.7891L102.68 56.4715L120.394 65.8999C121.878 66.6966 123.005 68.0191 123.551 69.6039C124.097 71.1886 124.022 72.9194 123.34 74.4515L115.174 92.6292C115.055 92.8924 114.863 93.116 114.62 93.273C114.376 93.43 114.092 93.5136 113.802 93.5137Z" fill="#2F2E41"/>
<path d="M100.763 25.9388L92.0755 22.9538C92.0755 22.9538 86.6217 27.1128 89.2417 37.4304C90.6095 42.7546 90.2111 48.3747 88.1056 53.4564C87.8521 54.0851 87.5598 54.6978 87.2305 55.2909C87.2305 55.2909 96.9205 66.899 105.942 58.2758L102.434 41.5269C102.434 41.5269 107.947 30.4162 100.763 25.9388Z" fill="#6C63FF"/>
<path d="M99.251 21.5967C98.083 19.8613 97.1612 17.455 98.4472 15.8039C99.7166 14.1741 102.22 14.4142 104.164 13.693C106.872 12.6885 108.443 9.53086 107.953 6.703C107.463 3.87514 105.176 1.53092 102.452 0.571745C99.7272 -0.387432 96.655 -0.0754851 93.987 1.02907C90.7026 2.38878 87.8852 5.01906 86.7038 8.35093C85.5224 11.6828 86.154 15.6833 88.6048 18.2443C91.2324 20.9899 95.3563 21.7216 99.1712 21.6772" fill="#2F2E41"/>
<path d="M91.617 6.79377C90.1452 7.98307 87.8996 7.45483 86.3197 6.41108C84.7398 5.36732 83.4578 3.88107 81.7484 3.06272C78.7347 1.62001 75.0911 2.57908 72.1581 4.17714C69.225 5.7752 66.625 7.98297 63.5269 9.23704C60.4287 10.4911 56.4753 10.5531 54.1293 8.18513C53.552 9.84537 53.5048 11.642 53.9942 13.3298C54.4835 15.0177 55.4856 16.5146 56.8637 17.6162C58.2418 18.7179 59.9288 19.3707 61.6944 19.4856C63.4601 19.6005 65.2185 19.1719 66.7297 18.2582C70.1243 16.2057 71.9994 11.9023 75.8068 10.7695C77.9137 10.1426 80.1761 10.6475 82.3055 11.1944C84.4349 11.7412 86.6553 12.3321 88.8042 11.8666C90.9531 11.401 92.9632 9.48419 92.6898 7.31789L91.617 6.79377Z" fill="#2F2E41"/>
<path d="M138.106 41.5543C137.89 41.0796 137.572 40.6577 137.174 40.3182C136.776 39.9787 136.307 39.73 135.802 39.5896C135.297 39.4491 134.767 39.4204 134.249 39.5053C133.731 39.5903 133.238 39.7869 132.805 40.0813L100.905 32.9747L100.509 40.713L131.99 45.2652C132.537 45.9543 133.319 46.4205 134.188 46.5755C135.058 46.7304 135.955 46.5634 136.709 46.106C137.462 45.6485 138.021 44.9326 138.278 44.0937C138.536 43.2548 138.474 42.3513 138.106 41.5543Z" fill="#FFB8B8"/>
<path d="M106.499 33.6855L104.552 41.5193C104.496 41.7422 104.393 41.9506 104.249 42.1303C104.105 42.3101 103.924 42.457 103.718 42.5609C103.512 42.6649 103.285 42.7235 103.054 42.7329C102.823 42.7422 102.593 42.7019 102.379 42.6149L94.8798 39.5644C93.7318 39.2772 92.7455 38.5497 92.1374 37.5416C91.5292 36.5334 91.3487 35.3269 91.6357 34.1869C91.9226 33.0469 92.6534 32.0664 93.6678 31.4605C94.6822 30.8547 95.8973 30.6731 97.0464 30.9555L105.088 31.7125C105.319 31.7342 105.541 31.805 105.742 31.9199C105.942 32.0348 106.115 32.1913 106.249 32.3785C106.382 32.5657 106.474 32.7794 106.517 33.005C106.56 33.2305 106.554 33.4626 106.499 33.6855V33.6855Z" fill="#6C63FF"/>
<path d="M134.421 47.7026C135.712 47.7026 136.76 46.6632 136.76 45.381C136.76 44.0988 135.712 43.0594 134.421 43.0594C133.129 43.0594 132.082 44.0988 132.082 45.381C132.082 46.6632 133.129 47.7026 134.421 47.7026Z" fill="#6C63FF"/>
</g>
<defs>
<clipPath id="clip0_15_797">
<rect width="277" height="121" fill="white" transform="translate(-39)"/>
</clipPath>
</defs>
</svg>
