<svg width="201" height="159" viewBox="0 0 201 159" fill="none" xmlns="http://www.w3.org/2000/svg">
<path d="M48.5044 85.8225C46.9149 77.262 49.4174 67.5231 56.3728 62.3414C55.9786 71.8034 58.9231 81.1008 64.6853 88.5885C66.9179 91.4681 69.6991 94.437 69.6127 98.0883C69.559 100.36 68.3379 102.477 66.7289 104.071C65.1197 105.666 63.1375 106.815 61.179 107.947L60.8741 108.424C55.133 101.908 50.0939 94.3829 48.5044 85.8225Z" fill="#6C63FF"/>
<path d="M56.258 62.6379C53.372 69.2273 52.5945 76.5768 54.036 83.6427C54.3198 85.1694 54.8378 86.6409 55.5708 88.0031C56.3269 89.3065 57.4113 90.3796 58.7114 91.1108C59.9102 91.8175 61.2166 92.3987 62.2261 93.3903C62.7355 93.9057 63.1323 94.5252 63.3905 95.208C63.6488 95.8909 63.7626 96.6217 63.7246 97.3526C63.6762 99.1762 62.9885 100.873 62.2594 102.509C61.4498 104.325 60.5808 106.199 60.6333 108.241C60.6396 108.488 60.263 108.484 60.2566 108.237C60.1653 104.684 62.683 101.831 63.244 98.4219C63.5057 96.8312 63.2992 95.1504 62.203 93.9174C61.2444 92.8392 59.8977 92.2387 58.6779 91.5339C57.3993 90.8395 56.3069 89.8363 55.4961 88.6119C54.6974 87.2922 54.1247 85.8435 53.8026 84.3278C53.0238 80.9272 52.7741 77.4228 53.0624 73.9431C53.3699 69.9699 54.3413 66.0795 55.9347 62.4405C56.0334 62.2153 56.356 62.4142 56.258 62.6379L56.258 62.6379Z" fill="#2E2E2E"/>
<path d="M53.7298 81.9363C52.4416 82.0364 51.1632 81.6277 50.1228 80.783C49.0823 79.9384 48.3477 78.713 48.05 77.3255C47.9906 77.0445 48.3833 76.9295 48.4427 77.2108C48.7177 78.5034 49.4022 79.6449 50.3725 80.4292C51.3428 81.2135 52.535 81.589 53.7341 81.4879C53.9947 81.4663 53.9889 81.9148 53.7298 81.9363Z" fill="#2E2E2E"/>
<path d="M57.9001 91.3957C59.5635 89.389 60.4568 86.7871 60.4019 84.1089C60.3962 83.8435 60.7825 83.8481 60.7881 84.1132C60.8404 86.9003 59.9056 89.606 58.1704 91.6902C58.0049 91.8887 57.7355 91.5932 57.9001 91.3958V91.3957Z" fill="#2E2E2E"/>
<path d="M54.1109 70.6092C54.5645 70.6975 55.0263 70.6232 55.4549 70.3928C55.8834 70.1625 56.2653 69.7834 56.5662 69.2895C56.72 69.0356 56.9739 69.4098 56.8211 69.6621C56.4868 70.2055 56.0647 70.6234 55.5916 70.8794C55.1185 71.1354 54.6088 71.2217 54.107 71.1306C54.0592 71.1277 54.014 71.0989 53.9805 71.0499C53.9471 71.001 53.9278 70.9356 53.9268 70.8672C53.9276 70.7981 53.9473 70.7323 53.9818 70.684C54.0162 70.6357 54.0626 70.6088 54.1108 70.6092H54.1109Z" fill="#2E2E2E"/>
<path d="M85.3024 70.1856C85.2041 70.3043 85.1057 70.423 85.0082 70.5447C83.6943 72.1468 82.5144 73.8516 81.4801 75.6423C81.3979 75.7795 81.3167 75.9198 81.2386 76.059C78.7934 80.3995 77.1855 85.1506 76.4968 90.0706C76.2246 92.0287 76.1037 94.0043 76.135 95.9805C76.1785 98.7096 76.4455 101.665 75.5982 104.175C75.5128 104.438 75.411 104.696 75.2933 104.946L61.6973 109.223C61.6615 109.218 61.6264 109.215 61.5905 109.21L61.0555 109.405C61.0467 109.303 61.0397 109.197 61.0309 109.095C61.0256 109.036 61.0232 108.976 61.0178 108.917C61.0152 108.878 61.0127 108.838 61.0081 108.802C61.0071 108.789 61.0064 108.776 61.0064 108.766C61.0018 108.73 61.0013 108.697 60.9976 108.664C60.9572 108.073 60.9198 107.481 60.8887 106.886C60.8877 106.883 60.8877 106.883 60.8898 106.879C60.6564 102.354 60.8036 97.7705 61.6507 93.3543C61.6763 93.2215 61.7007 93.0856 61.7324 92.9508C62.1255 90.9623 62.6825 89.0088 63.3978 87.1099C63.7929 86.0714 64.241 85.0532 64.7404 84.0594C66.0357 81.494 67.7316 79.1458 69.766 77.1008C73.8221 73.0246 79.1534 70.2746 84.8659 70.188C85.012 70.1859 85.1553 70.1847 85.3024 70.1856Z" fill="#6C63FF"/>
<path d="M85.1956 69.5912C78.8329 73.1366 73.7389 78.615 70.6372 85.2483C69.9444 86.6644 69.4771 88.1818 69.2524 89.7447C69.0824 91.2743 69.3213 92.8219 69.9444 94.2268C70.4993 95.5485 71.2186 96.8356 71.4455 98.2704C71.5508 99.0066 71.5007 99.7569 71.2985 100.472C71.0963 101.188 70.7466 101.852 70.2723 102.421C69.1269 103.871 67.5337 104.818 65.9438 105.691C64.1785 106.659 62.3296 107.637 61.1346 109.327C60.9898 109.531 60.6835 109.293 60.828 109.088C62.9072 106.148 66.7025 105.405 69.2297 102.989C70.4089 101.861 71.2586 100.369 71.1069 98.6837C70.9743 97.2104 70.2337 95.8825 69.6604 94.5491C69.0327 93.1876 68.7448 91.6917 68.822 90.192C68.967 88.6226 69.3757 87.0896 70.0304 85.6586C71.4534 82.4131 73.3733 79.4136 75.7196 76.77C78.3809 73.7379 81.5366 71.1875 85.0501 69.2292C85.2676 69.1081 85.4117 69.4709 85.1956 69.5912Z" fill="#2E2E2E"/>
<path d="M71.2271 82.902C70.0945 82.3032 69.2602 81.3961 68.8731 80.3425C68.486 79.289 68.5713 78.1578 69.1139 77.1508C69.2246 76.9474 69.618 77.0778 69.5072 77.2815C68.9998 78.2185 68.9204 79.2722 69.2834 80.2527C69.6463 81.2331 70.4276 82.0756 71.4864 82.6281C71.7163 82.7484 71.4557 83.0216 71.2271 82.902H71.2271Z" fill="#2E2E2E"/>
<path d="M69.7567 93.3726C71.9454 92.9278 73.886 91.6748 75.1915 89.8636C75.3207 89.684 75.5927 89.8939 75.4637 90.0732C74.1017 91.9555 72.0795 93.2553 69.8008 93.7132C69.5836 93.7567 69.5406 93.4159 69.7567 93.3726V93.3726Z" fill="#2E2E2E"/>
<path d="M78.724 74.1684C79.0424 74.6932 79.4341 75.0784 79.8642 75.2893C80.2942 75.5003 80.749 75.5304 81.1878 75.3769C81.4126 75.297 81.457 75.8857 81.2336 75.965C80.7484 76.1308 80.2461 76.0966 79.7707 75.8653C79.2953 75.634 78.8611 75.2126 78.5062 74.6381C78.4701 74.5886 78.4466 74.5181 78.4406 74.4408C78.4345 74.3636 78.4464 74.2854 78.4738 74.2222C78.5029 74.1603 78.5454 74.1199 78.5922 74.1098C78.6391 74.0997 78.6865 74.1207 78.724 74.1683V74.1684Z" fill="#2E2E2E"/>
<path d="M106.633 23.1061C106.678 23.301 106.707 23.4991 106.721 23.6985L122.487 32.6495L126.319 30.4784L130.405 35.7418L124 40.2342C123.483 40.5971 122.86 40.785 122.224 40.7698C121.589 40.7546 120.976 40.537 120.477 40.1497L104.219 27.5276C103.486 27.7948 102.687 27.836 101.929 27.6454C101.171 27.4549 100.49 27.0418 99.9759 26.461C99.4622 25.8803 99.1404 25.1594 99.0533 24.3942C98.9661 23.6291 99.1178 22.856 99.488 22.1777C99.8582 21.4994 100.43 20.9481 101.126 20.5972C101.822 20.2463 102.611 20.1123 103.386 20.213C104.162 20.3138 104.888 20.6446 105.468 21.1614C106.048 21.6782 106.454 22.3565 106.633 23.1061V23.1061Z" fill="#FFB6B6"/>
<path d="M122.599 32.0786C122.649 31.8457 122.75 31.6264 122.894 31.4357C123.038 31.2449 123.222 31.0872 123.433 30.9732L130.805 26.9925C131.787 26.2582 133.022 25.9397 134.24 26.1069C135.459 26.274 136.56 26.9132 137.304 27.8842C138.047 28.8552 138.372 30.0788 138.207 31.2867C138.041 32.4945 137.399 33.588 136.421 34.3274L130.513 40.2759C130.344 40.4457 130.141 40.5774 129.916 40.6622C129.691 40.747 129.451 40.7827 129.211 40.7671C128.971 40.7515 128.738 40.6848 128.526 40.5716C128.315 40.4584 128.13 40.3014 127.985 40.1112L122.898 33.4269C122.753 33.2367 122.652 33.0178 122.6 32.7851C122.548 32.5524 122.548 32.3115 122.599 32.0786Z" fill="#3F3D56"/>
<path d="M135.739 8.47924C136.764 5.12988 139.094 2.05797 142.317 0.925708C145.54 -0.206553 150.26 1.51825 152.683 3.99475C157.115 8.52476 158.197 24.087 155.152 29.0048C154.546 28.9719 152.456 28.9476 151.843 28.9241L150.976 25.96V28.8949C146.191 28.7432 141.209 28.8382 136.225 28.9364C135.778 25.4545 134.714 11.8286 135.739 8.47924Z" fill="#2F2E41"/>
<path d="M134.326 149.605H129.676L127.463 131.956L134.327 131.956L134.326 149.605Z" fill="#FFB6B6"/>
<path d="M173.546 146.527L169.2 147.644L162.761 131.644L169.177 129.995L173.546 146.527Z" fill="#FFB6B6"/>
<path d="M148.973 42.8752L150.015 45.6106L149.806 48.346L129.424 55.4779L130.436 43.5064L132.727 40.7706L148.973 42.8752Z" fill="#FFB6B6"/>
<path d="M142.171 19.2C145.961 19.2 149.034 16.1271 149.034 12.3366C149.034 8.546 145.961 5.47314 142.171 5.47314C138.38 5.47314 135.307 8.546 135.307 12.3366C135.307 16.1271 138.38 19.2 142.171 19.2Z" fill="#FFB7B7"/>
<path d="M137.574 2.82514C138.924 2.01223 140.471 1.57249 142.052 1.55191C143.634 1.53132 145.191 1.93064 146.563 2.70812C147.934 3.4856 149.069 4.61268 149.849 5.97151C150.628 7.33034 151.023 8.87101 150.994 10.4324C147.163 11.3993 143.081 11.8037 138.755 10.6653L137.766 8.27532L137.183 10.6671C135.86 11.5864 134.583 11.5848 133.351 10.6621C133.299 9.10508 133.662 7.56181 134.403 6.18654C135.144 4.81127 136.237 3.65218 137.574 2.82514Z" fill="#2F2E41"/>
<path d="M136.288 158.429H133.076L132.502 155.259L131.034 158.429H122.515C122.107 158.429 121.709 158.293 121.38 158.04C121.051 157.787 120.808 157.431 120.687 157.023C120.565 156.616 120.572 156.178 120.705 155.774C120.838 155.371 121.091 155.022 121.427 154.78L128.23 149.868V146.663L135.386 147.11L136.288 158.429Z" fill="#2F2E41"/>
<path d="M178.449 153.928L175.348 154.735L174.032 151.957L173.377 155.248L165.153 157.387C164.759 157.49 164.342 157.464 163.964 157.313C163.586 157.163 163.265 156.895 163.05 156.55C162.835 156.205 162.735 155.8 162.767 155.395C162.798 154.99 162.959 154.605 163.225 154.297L168.61 148.061L167.838 145.108L174.853 143.722L178.449 153.928Z" fill="#2F2E41"/>
<path d="M172.529 135.74L159.437 108.786L155.327 75.9798C158.161 70.7083 152.899 59.9817 152.899 59.9817V55.478L132.514 59.3305V59.3305C128.344 70.7223 126.322 82.7906 126.551 94.9218L127.372 138.531H127.115C126.687 138.531 126.277 138.701 125.975 139.004C125.672 139.307 125.502 139.718 125.502 140.146C125.502 140.574 125.672 140.985 125.975 141.288C126.277 141.591 126.687 141.761 127.115 141.761H135.176C135.603 141.761 136.013 141.591 136.316 141.288C136.618 140.985 136.788 140.574 136.788 140.146C136.788 139.718 136.618 139.307 136.316 139.004C136.013 138.701 135.603 138.531 135.176 138.531H134.968L140.755 83.0524L147.483 110.43L163.744 135.637C163.329 135.669 162.943 135.861 162.667 136.173C162.391 136.484 162.245 136.891 162.262 137.308C162.279 137.724 162.456 138.118 162.756 138.406C163.057 138.694 163.457 138.855 163.873 138.854H171.934C172.309 138.854 172.672 138.724 172.961 138.484C173.251 138.245 173.447 137.913 173.518 137.544C173.588 137.175 173.528 136.793 173.347 136.464C173.167 136.134 172.877 135.879 172.529 135.74H172.529Z" fill="#2F2E41"/>
<path d="M154.878 62.3935H154.878C154.81 62.1318 154.661 61.8979 154.451 61.7253C154.24 61.5527 153.98 61.4503 153.708 61.4328C153.437 58.3764 151.651 38.775 151.583 38.2L151.58 38.1756L151.063 27.2499C151.044 26.8531 150.878 26.477 150.596 26.1935C150.315 25.9101 149.938 25.739 149.537 25.7131L146.804 25.5365C146.767 25.5353 146.731 25.5197 146.705 25.493C146.679 25.4664 146.664 25.4308 146.664 25.3937C146.664 25.0954 146.605 24.7999 146.49 24.5243C146.374 24.2487 146.205 23.9983 145.991 23.7873C145.778 23.5764 145.525 23.409 145.246 23.2949C144.967 23.1807 144.668 23.1219 144.367 23.1219H136.276C135.752 23.1222 135.246 23.3114 134.853 23.6542C134.461 23.9971 134.208 24.4698 134.142 24.9838C134.139 25.0192 134.122 25.052 134.095 25.0755C134.068 25.0991 134.033 25.1117 133.997 25.1109L133.996 25.1109C133.077 25.0922 132.181 25.3998 131.472 25.9781C130.762 26.5564 130.286 27.3669 130.13 28.2625C129.023 34.6244 126.807 49.0633 127.903 57.0905C128.284 59.8849 128.111 64.0877 127.967 66.4257C127.952 66.6517 127.983 66.8782 128.058 67.0923C128.132 67.3064 128.248 67.5039 128.4 67.6735C128.077 67.7655 127.804 67.9777 127.636 68.2654C127.469 68.5531 127.421 68.8939 127.502 69.2158H127.502C127.587 69.5458 127.8 69.8293 128.095 70.0038C128.391 70.1783 128.745 70.2296 129.078 70.1464L153.936 63.9515C154.27 63.8683 154.557 63.6574 154.733 63.3653C154.91 63.0731 154.962 62.7235 154.878 62.3935Z" fill="#3F3D56"/>
<path d="M113.437 108.984C113.433 108.253 113.172 107.547 112.702 106.992C112.231 106.437 111.582 106.068 110.868 105.95L66.9428 98.661C66.5216 98.5906 66.0905 98.6099 65.6771 98.7179L55.3831 101.408L49.4767 102.953L38.5767 105.8C37.9187 105.973 37.336 106.362 36.92 106.905C36.504 107.448 36.2782 108.116 36.278 108.803V155.317C36.2813 156.026 36.5238 156.713 36.9654 157.264C37.407 157.815 38.0214 158.197 38.7071 158.348L83.4475 157.836C83.6576 157.881 83.8719 157.904 84.0867 157.903C84.3998 157.904 84.7111 157.856 85.0098 157.761L111.591 158.429C112.218 158.231 112.766 157.834 113.152 157.297C113.539 156.76 113.744 156.111 113.736 155.447L113.437 108.984Z" fill="#2E2E2E"/>
<path d="M113.437 108.983C113.433 108.252 113.172 107.546 112.702 106.991C112.231 106.436 111.582 106.067 110.868 105.95L66.9428 98.661C66.5216 98.5906 66.0905 98.6099 65.6771 98.7179L55.3831 101.407L49.4767 102.952L38.5767 105.8C37.9187 105.972 37.336 106.361 36.92 106.904C36.504 107.447 36.2782 108.115 36.278 108.802V155.311C36.2813 156.02 36.5238 156.706 36.9654 157.257C37.407 157.808 38.0214 158.191 38.7071 158.341L83.4475 157.829C83.6576 157.875 83.8719 157.897 84.0867 157.896C84.3998 157.897 84.7111 157.849 85.0098 157.754L111.591 158.423C112.218 158.225 112.766 157.828 113.152 157.291C113.539 156.754 113.744 156.105 113.736 155.441L113.437 108.983ZM111.361 157.684L84.7797 158.323C84.4005 158.442 83.9974 158.462 83.6086 158.379L38.8656 157.584C38.3515 157.471 37.891 157.184 37.56 156.771C37.2291 156.357 37.0474 155.842 37.0451 155.311V108.802C37.0455 108.326 37.1903 107.861 37.46 107.471C37.7297 107.08 38.1115 106.783 38.5537 106.619C38.6239 106.592 38.6956 106.57 38.7685 106.551L50.3 103.539L57.1192 101.756L65.8689 99.4697C66.0565 99.4191 66.25 99.3939 66.4442 99.3948C66.5693 99.3947 66.6941 99.4051 66.8175 99.4258L110.742 106.714C111.096 106.773 111.431 106.914 111.721 107.126C112.011 107.338 112.249 107.615 112.414 107.936C112.58 108.262 112.668 108.622 112.67 108.988L112.969 155.446C112.975 155.944 112.821 156.431 112.532 156.834C112.242 157.237 111.832 157.535 111.361 157.684Z" fill="#6C63FF"/>
<path d="M112.57 107.881C112.54 107.9 112.507 107.914 112.472 107.922L99.5402 111.271L95.5145 112.312L84.0643 115.275C84.0316 115.283 83.9981 115.287 83.9645 115.288C83.9414 115.287 83.9183 115.286 83.8954 115.283L37.7261 107.221L37.5725 107.195C37.4725 107.177 37.384 107.121 37.3263 107.041C37.2686 106.961 37.2465 106.862 37.2648 106.766C37.2831 106.67 37.3402 106.585 37.4238 106.529C37.5073 106.474 37.6105 106.452 37.7107 106.469L38.6397 106.631L83.9491 114.543L93.8177 111.989L99.3381 110.56L112.07 107.263L112.273 107.212C112.36 107.19 112.453 107.198 112.535 107.234C112.616 107.271 112.682 107.334 112.72 107.413C112.73 107.431 112.738 107.451 112.744 107.471C112.765 107.549 112.759 107.63 112.728 107.704C112.696 107.778 112.641 107.84 112.57 107.881Z" fill="#6C63FF"/>
<path d="M84.6487 157.523C84.2904 157.523 83.9985 157.355 83.9951 158.429L83.3415 116.955C83.3381 115.462 83.6283 115.29 83.9891 115.288H83.9951C84.3534 115.288 84.6453 115.456 84.6487 116.948L85.3024 158.422C85.3058 157.349 85.0156 157.521 84.6547 157.523H84.6487Z" fill="#6C63FF"/>
<path d="M100.01 158.385L95.8811 158.429L94.1867 112.373L50.953 103.714C50.9107 103.707 50.8688 103.696 50.8278 103.683C50.4957 103.588 50.2056 103.382 50.0049 103.099L55.9084 101.561L57.6437 101.908L98.6667 110.122C98.8824 110.165 99.0864 110.255 99.2646 110.384C99.4428 110.514 99.591 110.681 99.6992 110.874C99.8269 111.097 100.007 158.118 100.01 158.385Z" fill="#6C63FF"/>
<path d="M133.119 24.9527C133.116 24.4087 132.918 23.8835 132.56 23.4702C132.203 23.0569 131.71 22.7823 131.167 22.695L97.8068 17.2699C97.4869 17.2175 97.1595 17.2319 96.8455 17.3122L89.0273 19.3142L84.5414 20.4642L76.2629 22.5835C75.7631 22.712 75.3206 23.0011 75.0047 23.4055C74.6887 23.81 74.5172 24.3068 74.5171 24.8181V51.8954C74.5196 52.4232 74.7037 52.9343 75.0391 53.3444C75.3745 53.7545 75.8412 54.0391 76.3619 54.1512L110.342 61.311C110.502 61.3449 110.664 61.3617 110.827 61.3609C111.065 61.3614 111.302 61.3257 111.529 61.2552L131.717 54.9416C132.193 54.7944 132.609 54.499 132.903 54.0992C133.196 53.6994 133.352 53.2166 133.346 52.7224L133.119 24.9527Z" fill="#2E2E2E"/>
<path d="M97.4107 19.2C97.3863 19.1999 97.362 19.203 97.3383 19.2092L76.6967 24.4957C76.6341 24.5118 76.5786 24.5479 76.5391 24.5986C76.4995 24.6492 76.478 24.7114 76.478 24.7754V51.9307C76.4783 51.9968 76.5013 52.0609 76.5433 52.1123C76.5853 52.1637 76.6438 52.1993 76.709 52.2134L110.786 59.3937C110.836 59.404 110.887 59.4015 110.935 59.3866L131.182 53.0549C131.241 53.0365 131.293 52.9995 131.33 52.9494C131.367 52.8993 131.386 52.8388 131.385 52.7769L131.158 24.927C131.158 24.8589 131.133 24.7931 131.088 24.7414C131.044 24.6896 130.982 24.6552 130.914 24.6443L97.4579 19.2037C97.4423 19.2012 97.4265 19.2 97.4107 19.2Z" fill="#6C63FF"/>
<path d="M133.119 24.9527C133.116 24.4087 132.918 23.8835 132.56 23.4702C132.203 23.0569 131.71 22.7823 131.167 22.695L97.8068 17.2699C97.4869 17.2175 97.1595 17.2319 96.8455 17.3122L89.0273 19.3142L84.5414 20.4642L76.2629 22.5835C75.7631 22.712 75.3206 23.0011 75.0047 23.4055C74.6887 23.81 74.5172 24.3068 74.5171 24.8181V51.8954C74.5196 52.4232 74.7037 52.9343 75.0391 53.3444C75.3745 53.7545 75.8412 54.0391 76.3619 54.1512L110.342 61.311C110.502 61.3449 110.664 61.3617 110.827 61.3609C111.065 61.3614 111.302 61.3257 111.529 61.2552L131.717 54.9416C132.193 54.7944 132.609 54.499 132.903 54.0992C133.196 53.6994 133.352 53.2166 133.346 52.7224L133.119 24.9527ZM131.542 54.3916L111.354 60.7052C111.066 60.794 110.76 60.8086 110.464 60.7475L76.4823 53.5878C76.0919 53.5035 75.7421 53.2898 75.4907 52.9822C75.2394 52.6745 75.1014 52.2912 75.0997 51.8954V24.8181C75.0999 24.4637 75.2099 24.1179 75.4148 23.8274C75.6196 23.5368 75.9095 23.3154 76.2454 23.1931C76.2987 23.1733 76.3532 23.1566 76.4085 23.1431L85.1667 20.9008L90.3458 19.5738L96.9911 17.8719C97.1337 17.8342 97.2806 17.8154 97.4281 17.8161C97.5231 17.816 97.6179 17.8238 97.7116 17.8392L131.072 23.2643C131.341 23.3079 131.595 23.4128 131.816 23.5707C132.036 23.7285 132.216 23.9351 132.342 24.1739C132.468 24.416 132.535 24.6842 132.536 24.9566L132.764 52.7262C132.768 53.097 132.651 53.4592 132.431 53.7591C132.211 54.0591 131.899 54.2809 131.542 54.3916V54.3916Z" fill="#3F3D56"/>
<path d="M132.225 24.2244C132.203 24.2391 132.178 24.25 132.152 24.2568L122.411 26.8609L119.379 27.6711L110.754 29.9758C110.729 29.9818 110.704 29.985 110.679 29.9854C110.661 29.985 110.644 29.9838 110.627 29.9815L75.8499 23.7116L75.7343 23.6907C75.6589 23.6767 75.5922 23.6338 75.5487 23.5713C75.5052 23.5089 75.4885 23.4319 75.5023 23.3573C75.516 23.2827 75.5591 23.2165 75.6221 23.1732C75.6851 23.1299 75.7629 23.1131 75.8384 23.1264L76.5382 23.2522L110.667 29.4058L118.101 27.4194L122.259 26.308L131.849 23.744L132.002 23.704C132.068 23.6868 132.137 23.6931 132.199 23.7216C132.261 23.7502 132.31 23.7993 132.339 23.8603C132.346 23.8749 132.352 23.8902 132.356 23.9061C132.372 23.966 132.368 24.0294 132.344 24.0868C132.321 24.1442 132.279 24.1925 132.225 24.2244Z" fill="#3F3D56"/>
<path d="M111.449 61.361C111.363 61.361 111.28 61.3315 111.219 61.2791C111.158 61.2266 111.123 61.1554 111.122 61.0809L110.795 30.2706C110.794 30.1956 110.828 30.1235 110.889 30.07C110.949 30.0165 111.032 29.9861 111.119 29.9854H111.122C111.208 29.9853 111.291 30.0148 111.352 30.0672C111.413 30.1197 111.448 30.1909 111.449 30.2654L111.776 61.0757C111.776 61.1507 111.743 61.2228 111.682 61.2763C111.621 61.3298 111.538 61.3603 111.452 61.361H111.449Z" fill="#3F3D56"/>
<path d="M122.561 57.5998L119.48 58.4195L118.182 27.3061L85.0486 20.8142C85.0162 20.8086 84.9841 20.8008 84.9526 20.7911C84.6981 20.7197 84.4757 20.5654 84.322 20.3533L88.8462 19.2L90.1761 19.4603L121.615 25.6186C121.78 25.6507 121.937 25.7177 122.073 25.8149C122.21 25.9121 122.323 26.0372 122.406 26.1817C122.504 26.3495 122.559 57.3992 122.561 57.5998Z" fill="#3F3D56"/>
<path d="M121.105 39.742C121.26 39.8762 121.405 40.0226 121.538 40.1798L139.76 38.0328L141.532 33.9072L148.054 35.7917L145.62 43.4028C145.423 44.0177 145.034 44.5516 144.511 44.9245C143.988 45.2973 143.359 45.489 142.719 45.4706L121.855 44.8723C121.425 45.5391 120.804 46.0581 120.075 46.3602C119.345 46.6622 118.542 46.7331 117.771 46.5633C117.001 46.3935 116.3 45.9911 115.762 45.4096C115.224 44.8282 114.874 44.0952 114.759 43.3082C114.644 42.5212 114.769 41.7174 115.117 41.0039C115.466 40.2903 116.022 39.7008 116.711 39.3137C117.399 38.9265 118.189 38.7601 118.974 38.8366C119.759 38.9132 120.502 39.2289 121.105 39.742Z" fill="#FFB6B6"/>
<path d="M139.379 37.4196C139.28 37.2012 139.229 36.9639 139.229 36.7239C139.23 36.4839 139.282 36.2468 139.383 36.0289L142.893 28.4179C143.238 27.2394 144.035 26.2458 145.111 25.655C146.187 25.0642 147.453 24.9244 148.631 25.2663C149.81 25.6082 150.805 26.4039 151.398 27.4788C151.991 28.5538 152.134 29.8203 151.796 31.0007L150.64 39.3304C150.607 39.5681 150.523 39.7959 150.394 39.9983C150.265 40.2007 150.094 40.3729 149.893 40.5032C149.691 40.6335 149.464 40.7188 149.227 40.7533C148.99 40.7878 148.748 40.7708 148.518 40.7033L140.429 38.3311C140.199 38.2637 139.986 38.1474 139.805 37.9901C139.623 37.8328 139.478 37.6382 139.379 37.4196Z" fill="#3F3D56"/>
<path d="M200.613 158.429H0.385717C0.283315 158.429 0.185205 158.377 0.1129 158.285C0.0405955 158.193 0 158.069 0 157.939C0 157.809 0.0405955 157.685 0.1129 157.593C0.185205 157.501 0.283315 157.449 0.385717 157.449H200.613C200.716 157.449 200.814 157.5 200.887 157.592C200.959 157.684 201 157.809 201 157.939C201 158.069 200.959 158.194 200.887 158.286C200.814 158.378 200.716 158.429 200.613 158.429Z" fill="#CACACA"/>
<path d="M39.2195 117.249C45.7176 117.249 50.9854 111.981 50.9854 105.483C50.9854 98.9848 45.7176 93.717 39.2195 93.717C32.7214 93.717 27.4537 98.9848 27.4537 105.483C27.4537 111.981 32.7214 117.249 39.2195 117.249Z" fill="#6C63FF"/>
<path d="M37.6767 111.366C37.4816 111.366 37.2891 111.32 37.1145 111.233C36.94 111.146 36.7882 111.019 36.6711 110.863L33.588 106.752C33.3879 106.486 33.3021 106.15 33.3492 105.82C33.3964 105.49 33.5727 105.193 33.8394 104.993C34.1062 104.793 34.4414 104.707 34.7715 104.754C35.1015 104.801 35.3993 104.977 35.5994 105.244L37.6165 107.933L42.7971 100.163C42.8885 100.025 43.0061 99.9065 43.1433 99.8142C43.2806 99.7218 43.4347 99.6575 43.5968 99.6248C43.759 99.5921 43.926 99.5917 44.0883 99.6237C44.2506 99.6557 44.405 99.7193 44.5426 99.8111C44.6803 99.9028 44.7984 100.021 44.8904 100.158C44.9823 100.296 45.0462 100.45 45.0784 100.612C45.1106 100.775 45.1104 100.942 45.078 101.104C45.0455 101.266 44.9813 101.42 44.8891 101.558L38.7228 110.806C38.6113 110.973 38.4612 111.111 38.2853 111.209C38.1094 111.306 37.9127 111.36 37.7117 111.365C37.7 111.366 37.6884 111.366 37.6767 111.366Z" fill="#2E2E2E"/>
<path d="M88.7489 43.7121C88.7136 43.7121 88.6784 43.7084 88.6439 43.7012L78.8096 41.6422C78.6866 41.6163 78.5797 41.5462 78.5125 41.4473C78.4452 41.3485 78.4229 41.2288 78.4507 41.1148C78.4784 41.0007 78.5539 40.9016 78.6604 40.839C78.767 40.7765 78.896 40.7557 79.019 40.7813L88.8533 42.8403C88.9675 42.8642 89.0682 42.9263 89.1361 43.0147C89.204 43.1031 89.2344 43.2116 89.2215 43.3195C89.2086 43.4273 89.1532 43.527 89.066 43.5994C88.9789 43.6719 88.866 43.712 88.7489 43.7121Z" fill="#2E2E2E"/>
<path d="M49.6349 135.861C49.601 135.873 49.5665 135.879 49.532 135.878L39.6761 135.581C39.5529 135.577 39.4356 135.486 39.35 135.327C39.2644 135.168 39.2175 134.956 39.2196 134.735C39.2216 134.515 39.2725 134.305 39.361 134.152C39.4495 133.998 39.5684 133.914 39.6916 133.917L49.5474 134.214C49.6619 134.217 49.7716 134.296 49.8556 134.435C49.9396 134.574 49.992 134.764 50.0028 134.967C50.0136 135.171 49.9821 135.375 49.9142 135.54C49.8463 135.704 49.7469 135.819 49.6349 135.861Z" fill="#E6E6E6"/>
<path d="M53.5232 140.772C53.4863 140.778 53.4486 140.781 53.411 140.78L42.6591 140.632C42.5247 140.63 42.3967 140.584 42.3034 140.505C42.21 140.426 42.1588 140.319 42.1611 140.209C42.1633 140.099 42.2188 139.994 42.3153 139.917C42.4118 139.841 42.5415 139.798 42.676 139.8L53.4278 139.948C53.5526 139.95 53.6723 139.989 53.7639 140.059C53.8556 140.128 53.9128 140.223 53.9246 140.325C53.9364 140.427 53.902 140.529 53.8279 140.611C53.7539 140.694 53.6454 140.751 53.5232 140.772Z" fill="#E6E6E6"/>
</svg>
