<svg width="181" height="164" viewBox="0 0 181 164" fill="none" xmlns="http://www.w3.org/2000/svg">
<path d="M1.0139 38.0019C0.659473 38.1015 0.359056 38.3376 0.178554 38.6584C-0.00194844 38.9791 -0.0477994 39.3583 0.0510611 39.7128L23.267 122.583C23.3667 122.938 23.6029 123.238 23.9238 123.418C24.2447 123.599 24.6241 123.644 24.9787 123.546L110.564 99.5928C110.919 99.4931 111.219 99.257 111.4 98.9363C111.58 98.6156 111.626 98.2364 111.527 97.8819L88.3113 15.0114C88.2116 14.6572 87.9754 14.3569 87.6545 14.1765C87.3336 13.9961 86.9542 13.9502 86.5995 14.049L1.0139 38.0019Z" fill="#9D9D9D"/>
<path d="M26.0543 119.632L107.612 96.8067L85.524 17.9621L3.96625 40.7877L26.0543 119.632Z" fill="#494949"/>
<path d="M14.7492 51.3156C14.2051 51.4679 13.9807 52.3713 14.2491 53.3294C14.5175 54.2875 15.1786 54.9431 15.7228 54.7908L52.92 44.3804C53.4642 44.2281 53.6885 43.3247 53.4201 42.3666C53.1517 41.4085 52.4906 40.7529 51.9465 40.9052L14.7492 51.3156Z" fill="#9D9D9D"/>
<path d="M17.7447 62.0086C17.2006 62.1609 16.9762 63.0644 17.2446 64.0224C17.5131 64.9805 18.1742 65.6361 18.7183 65.4838L55.9156 55.0734C56.4597 54.9212 56.684 54.0177 56.4156 53.0596C56.1472 52.1016 55.4861 51.446 54.942 51.5982L17.7447 62.0086Z" fill="#9D9D9D"/>
<path d="M20.7059 72.5783C20.1617 72.7306 19.9374 73.634 20.2058 74.5921C20.4742 75.5501 21.1353 76.2057 21.6795 76.0535L58.8767 65.6431C59.4208 65.4908 59.6452 64.5874 59.3768 63.6293C59.1084 62.6712 58.4473 62.0156 57.9031 62.1679L20.7059 72.5783Z" fill="#9D9D9D"/>
<path d="M23.7014 83.2713C23.1573 83.4236 22.9329 84.327 23.2013 85.2851C23.4697 86.2432 24.1308 86.8988 24.675 86.7465L61.8722 76.3361C62.4164 76.1838 62.6407 75.2804 62.3723 74.3223C62.1039 73.3642 61.4428 72.7086 60.8987 72.8609L23.7014 83.2713Z" fill="#9D9D9D"/>
<path d="M70.8237 35.7454C70.5951 35.809 70.3814 35.9171 70.1946 36.0634C70.0079 36.2097 69.8519 36.3914 69.7355 36.598C69.619 36.8046 69.5445 37.0321 69.5161 37.2676C69.4877 37.503 69.506 37.7417 69.57 37.9701C69.6339 38.1984 69.7423 38.4119 69.8889 38.5984C70.0355 38.7849 70.2174 38.9406 70.4243 39.0567C70.6311 39.1729 70.8589 39.2471 71.0944 39.2752C71.33 39.3033 71.5688 39.2848 71.7972 39.2206L78.751 37.2744C79.2121 37.1454 79.603 36.8385 79.8378 36.4214C80.0725 36.0043 80.1318 35.5111 80.0027 35.0503C79.8736 34.5894 79.5667 34.1987 79.1493 33.9641C78.732 33.7295 78.2386 33.6702 77.7775 33.7992L70.8237 35.7454Z" fill="#9D9D9D"/>
<path d="M73.7612 46.2312C73.5327 46.2949 73.3189 46.403 73.1322 46.5493C72.9455 46.6956 72.7895 46.8772 72.673 47.0838C72.5566 47.2904 72.482 47.518 72.4536 47.7534C72.4253 47.9888 72.4436 48.2276 72.5075 48.4559C72.5715 48.6843 72.6799 48.8978 72.8265 49.0842C72.9731 49.2707 73.155 49.4265 73.3618 49.5426C73.5687 49.6587 73.7964 49.733 74.032 49.7611C74.2676 49.7892 74.5064 49.7706 74.7348 49.7064L81.6886 47.7602C82.1497 47.6312 82.5406 47.3244 82.7753 46.9073C83.0101 46.4902 83.0694 45.9969 82.9403 45.5361C82.8112 45.0753 82.5042 44.6846 82.0869 44.4499C81.6696 44.2153 81.1761 44.156 80.7151 44.285L73.7612 46.2312Z" fill="#9D9D9D"/>
<path d="M76.6988 56.7168C76.4705 56.7807 76.257 56.8889 76.0705 57.0352C75.8841 57.1816 75.7283 57.3632 75.6121 57.5697C75.4958 57.7763 75.4215 58.0037 75.3932 58.2389C75.3649 58.4742 75.3832 58.7127 75.4471 58.9409C75.511 59.1691 75.6193 59.3825 75.7657 59.5688C75.9122 59.7552 76.0939 59.9109 76.3005 60.0271C76.5071 60.1433 76.7346 60.2176 76.97 60.2459C77.2054 60.2742 77.4441 60.2559 77.6723 60.192L84.6262 58.2458C85.0872 58.1168 85.4781 57.8099 85.7129 57.3928C85.9476 56.9757 86.007 56.4825 85.8779 56.0217C85.7488 55.5608 85.4418 55.1701 85.0245 54.9355C84.6072 54.7009 84.1137 54.6416 83.6526 54.7706L76.6988 56.7168Z" fill="#9D9D9D"/>
<path d="M79.6362 67.2023C79.1757 67.3318 78.7854 67.6387 78.551 68.0556C78.3167 68.4725 78.2576 68.9654 78.3866 69.4259C78.5156 69.8864 78.8222 70.2769 79.2391 70.5115C79.6559 70.7462 80.149 70.8059 80.6098 70.6775L87.5637 68.7313C88.0242 68.6019 88.4146 68.2949 88.6489 67.878C88.8832 67.4611 88.9423 66.9682 88.8133 66.5077C88.6843 66.0472 88.3777 65.6568 87.9609 65.4221C87.544 65.1874 87.051 65.1277 86.5901 65.2561L79.6362 67.2023Z" fill="#9D9D9D"/>
<path d="M82.4428 85.3776C82.1516 85.4587 81.8792 85.5964 81.6413 85.7828C81.4034 85.9693 81.2046 86.2007 81.0562 86.464C80.9078 86.7273 80.8128 87.0172 80.7767 87.3172C80.7405 87.6172 80.7638 87.9213 80.8453 88.2123C80.9269 88.5033 81.0649 88.7753 81.2517 89.0129C81.4385 89.2505 81.6703 89.449 81.9339 89.5969C82.1974 89.7449 82.4876 89.8395 82.7878 89.8754C83.088 89.9112 83.3923 89.8875 83.6833 89.8057L92.5439 87.3259C93.1314 87.1615 93.6295 86.7705 93.9286 86.239C94.2277 85.7075 94.3034 85.0791 94.1389 84.4918C93.9744 83.9046 93.5832 83.4068 93.0514 83.1078C92.5197 82.8089 91.8909 82.7333 91.3034 82.8977L82.4428 85.3776Z" fill="#6C63FF"/>
<path d="M91.5618 76.4345L25.994 94.7849L26.1572 95.3674L91.725 77.017L91.5618 76.4345Z" fill="#9D9D9D"/>
<path d="M157.424 154.755L152.165 156.026L144.759 136.357L152.52 134.482L157.424 154.755Z" fill="#A0616A"/>
<path d="M143.092 163.539L143.057 163.393C142.64 161.661 142.928 159.835 143.856 158.315C144.785 156.795 146.279 155.705 148.01 155.285L158.299 152.799L159.914 159.475L143.092 163.539Z" fill="#2F2E41"/>
<path d="M134.144 158.336L128.734 158.335L126.16 137.478L134.145 137.478L134.144 158.336Z" fill="#A0616A"/>
<path d="M135.455 163.508L118.149 163.507V163.356C118.149 161.575 118.857 159.866 120.117 158.606C121.378 157.347 123.087 156.639 124.869 156.639H124.87L135.455 156.64L135.455 163.508Z" fill="#2F2E41"/>
<path d="M126.156 150.193L120.903 87.6206L142.648 83.6143L142.734 83.5988L149.099 87.6882L146.884 110.716L157.083 146.619L148.276 148.936L138.06 115.638L135.723 105.512L134.524 118.67L135.414 151.118L126.156 150.193Z" fill="#2F2E41"/>
<path d="M120.23 89.04L120.172 88.9672L127.686 32.418L127.696 32.344L127.749 32.291C127.86 32.1803 130.493 29.5799 133.201 29.5799C133.592 29.5799 133.964 29.57 134.321 29.561C136.394 29.5071 138.03 29.4641 139.976 31.4088C141.958 33.3898 148.425 40.6235 148.425 50.5308C148.425 60.1202 149.299 89.9209 149.307 90.2207L149.32 90.6415L148.967 90.4119C148.88 90.3559 140.181 84.8201 132.886 89.9661C130.607 91.5744 128.559 92.1383 126.808 92.1383C122.732 92.1383 120.265 89.0844 120.23 89.04Z" fill="#6C63FF"/>
<path d="M137.249 24.9137C142.502 22.0439 144.432 15.4617 141.561 10.2119C138.689 4.9621 132.104 3.03273 126.852 5.90253C121.599 8.77232 119.669 15.3546 122.54 20.6043C125.411 25.8541 131.997 27.7835 137.249 24.9137Z" fill="#A0616A"/>
<path d="M115.458 101.193C115.971 100.796 116.391 100.291 116.687 99.7141C116.984 99.1374 117.15 98.5027 117.175 97.8547C117.199 97.2068 117.081 96.5614 116.829 95.9639C116.577 95.3664 116.197 94.8314 115.716 94.3966L121.871 79.8853L113.812 81.3678L109.202 94.9207C108.525 95.7772 108.186 96.8523 108.249 97.9422C108.311 99.032 108.772 100.061 109.543 100.834C110.314 101.607 111.342 102.071 112.433 102.137C113.523 102.203 114.599 101.867 115.458 101.193H115.458Z" fill="#A0616A"/>
<path d="M109.512 89.9047L111.494 85.7223C111.371 85.6487 111.27 85.5441 111.201 85.4191C109.349 82.2114 120.535 55.5736 121.28 53.8067C121.167 52.8458 119.993 42.6624 120.851 39.2299C121.862 35.1892 123.937 33.306 127.79 32.933C132.039 32.5342 133.186 38.3017 133.197 38.3602L133.201 53.1874L128.324 70.2552L117.202 92.9324L109.512 89.9047Z" fill="#6C63FF"/>
<path d="M133.436 19.4897C132.137 19.6586 131.157 18.3299 130.702 17.1017C130.248 15.8735 129.902 14.4436 128.772 13.7801C127.229 12.8737 125.254 13.9639 123.489 13.6648C121.496 13.3271 120.2 11.2159 120.099 9.1979C119.997 7.17995 120.801 5.23912 121.589 3.3786L121.864 5.69081C121.827 4.90714 121.992 4.12714 122.343 3.42542C122.694 2.7237 123.22 2.12373 123.869 1.68289L123.514 5.07571C123.737 3.17497 125.785 1.70215 127.659 2.09604L127.603 4.1176C129.905 3.84401 132.227 3.57004 134.536 3.77847C136.845 3.98691 139.17 4.71704 140.919 6.23681C143.537 8.51015 144.493 12.2535 144.172 15.7045C143.851 19.1556 142.426 22.3976 140.94 25.5295C140.567 26.3174 140.05 27.2066 139.183 27.307C138.404 27.3972 137.692 26.7466 137.45 26.0013C137.208 25.2561 137.326 24.4464 137.471 23.6764C137.69 22.5132 137.966 21.3242 137.76 20.1586C137.554 18.993 136.715 17.8411 135.539 17.6983C134.364 17.5554 133.161 18.8985 133.726 19.9387L133.436 19.4897Z" fill="#2F2E41"/>
<path d="M180.885 163.533H102.888V162.896H181L180.885 163.533Z" fill="#3F3D56"/>
</svg>
