<svg width="202" height="180" viewBox="0 0 202 180" fill="none" xmlns="http://www.w3.org/2000/svg">
<path d="M85.7808 40.7695H84.8356V14.946C84.8356 10.982 83.2566 7.18049 80.446 4.37758C77.6353 1.57467 73.8233 4.9427e-06 69.8485 0H14.9872C13.019 -6.99229e-06 11.0702 0.386575 9.25184 1.13767C7.43352 1.88877 5.78135 2.98967 4.38966 4.37753C2.99797 5.76538 1.89402 7.413 1.14084 9.22633C0.387665 11.0396 7.01164e-06 12.9832 0 14.9459V156.616C-2.80464e-06 158.578 0.387642 160.522 1.14081 162.335C1.89398 164.149 2.99793 165.796 4.38961 167.184C5.78129 168.572 7.43345 169.673 9.25177 170.424C11.0701 171.175 13.019 171.562 14.9871 171.562H69.8484C71.8165 171.562 73.7654 171.175 75.5837 170.424C77.4021 169.673 79.0542 168.572 80.4459 167.184C81.8376 165.796 82.9416 164.149 83.6947 162.335C84.4479 160.522 84.8356 158.578 84.8356 156.616V59.1511H85.7808V40.7695Z" fill="#3F3D56"/>
<path d="M69.9811 3.68945H62.8227C63.1519 4.49659 63.2776 5.3723 63.1886 6.23945C63.0997 7.1066 62.7989 7.93857 62.3127 8.66206C61.8265 9.38556 61.1699 9.97837 60.4006 10.3883C59.6314 10.7982 58.7731 11.0126 57.9015 11.0127H26.4845C25.6129 11.0126 24.7546 10.7982 23.9854 10.3883C23.2161 9.97837 22.5595 9.38555 22.0733 8.66206C21.5871 7.93856 21.2863 7.1066 21.1973 6.23945C21.1084 5.37231 21.2341 4.49659 21.5633 3.68945H14.8773C11.9101 3.68945 9.06445 4.86823 6.96633 6.9665C4.86821 9.06476 3.68949 11.9106 3.68948 14.878V156.684C3.68948 158.153 3.97887 159.608 4.54111 160.965C5.10335 162.323 5.92743 163.556 6.96631 164.595C8.0052 165.634 9.23853 166.458 10.5959 167.02C11.9533 167.583 13.4081 167.872 14.8773 167.872H69.9811C72.9483 167.872 75.794 166.693 77.8921 164.595C79.9902 162.497 81.1689 159.651 81.1689 156.684V14.878C81.1689 13.4087 80.8796 11.9538 80.3173 10.5963C79.7551 9.23888 78.931 8.00546 77.8921 6.96651C76.8532 5.92755 75.6199 5.10341 74.2625 4.54113C72.9052 3.97885 71.4503 3.68945 69.9811 3.68945H69.9811ZM68.7785 69.4739C68.7762 70.2419 68.4702 70.9777 67.9272 71.5207C67.3842 72.0637 66.6485 72.3698 65.8806 72.372H51.8742C51.1063 72.3698 50.3706 72.0637 49.8276 71.5207C49.2846 70.9777 48.9786 70.2419 48.9763 69.4739V68.7494C48.9786 67.9815 49.2846 67.2457 49.8276 66.7027C50.3706 66.1597 51.1063 65.8536 51.8742 65.8514H65.8806C66.6485 65.8536 67.3842 66.1597 67.9272 66.7027C68.4702 67.2457 68.7762 67.9815 68.7785 68.7494V69.4739ZM70.3481 56.6741C70.3459 57.4421 70.0399 58.1779 69.4969 58.7209C68.9539 59.2639 68.2181 59.57 67.4503 59.5722H17.2205C16.4526 59.57 15.7168 59.2639 15.1739 58.7209C14.6309 58.1779 14.3249 57.4421 14.3226 56.6741V55.9496C14.3249 55.1817 14.6309 54.4459 15.1739 53.9029C15.7168 53.3598 16.4526 53.0538 17.2205 53.0515H67.4503C68.2181 53.0538 68.9539 53.3598 69.4969 53.9029C70.0399 54.4459 70.3459 55.1817 70.3481 55.9496V56.6741ZM70.3481 43.8743C70.3459 44.6422 70.0399 45.3781 69.4969 45.9211C68.9539 46.4641 68.2181 46.7701 67.4503 46.7724H17.2205C16.4526 46.7701 15.7168 46.4641 15.1739 45.9211C14.6309 45.3781 14.3249 44.6422 14.3226 43.8743V43.1498C14.3249 42.3819 14.6309 41.646 15.1739 41.103C15.7168 40.56 16.4526 40.254 17.2205 40.2517H67.4503C68.2181 40.254 68.9539 40.56 69.4969 41.103C70.0399 41.646 70.3459 42.3819 70.3481 43.1498V43.8743ZM70.3481 31.0745C70.3459 31.8424 70.0399 32.5783 69.4969 33.1213C68.9539 33.6643 68.2181 33.9703 67.4503 33.9726H17.2205C16.4526 33.9703 15.7168 33.6643 15.1739 33.1213C14.6309 32.5783 14.3249 31.8424 14.3226 31.0745V30.35C14.3249 29.5821 14.6309 28.8462 15.1739 28.3032C15.7168 27.7602 16.4526 27.4542 17.2205 27.4519H67.4503C68.2181 27.4542 68.9539 27.7602 69.4969 28.3032C70.0399 28.8462 70.3459 29.5821 70.3481 30.35V31.0745Z" fill="#222222"/>
<path d="M18.4475 58.1097C19.4663 58.1097 20.2923 57.4902 20.2923 56.7261C20.2923 55.962 19.4663 55.3425 18.4475 55.3425C17.4287 55.3425 16.6028 55.962 16.6028 56.7261C16.6028 57.4902 17.4287 58.1097 18.4475 58.1097Z" fill="#222222"/>
<path d="M24.4429 58.1097C25.207 58.1097 25.8265 57.4902 25.8265 56.7261C25.8265 55.962 25.207 55.3425 24.4429 55.3425C23.6788 55.3425 23.0594 55.962 23.0594 56.7261C23.0594 57.4902 23.6788 58.1097 24.4429 58.1097Z" fill="#222222"/>
<path d="M29.9772 58.1097C30.7413 58.1097 31.3607 57.4902 31.3607 56.7261C31.3607 55.962 30.7413 55.3425 29.9772 55.3425C29.213 55.3425 28.5936 55.962 28.5936 56.7261C28.5936 57.4902 29.213 58.1097 29.9772 58.1097Z" fill="#222222"/>
<path d="M35.5114 58.1097C36.2755 58.1097 36.895 57.4902 36.895 56.7261C36.895 55.962 36.2755 55.3425 35.5114 55.3425C34.7473 55.3425 34.1279 55.962 34.1279 56.7261C34.1279 57.4902 34.7473 58.1097 35.5114 58.1097Z" fill="#222222"/>
<path d="M53.4977 71.9451C54.5165 71.9451 55.3425 71.1192 55.3425 70.1004C55.3425 69.0815 54.5165 68.2556 53.4977 68.2556C52.4789 68.2556 51.653 69.0815 51.653 70.1004C51.653 71.1192 52.4789 71.9451 53.4977 71.9451Z" fill="#222222"/>
<path d="M59.0319 71.9451C60.0508 71.9451 60.8767 71.1192 60.8767 70.1004C60.8767 69.0815 60.0508 68.2556 59.0319 68.2556C58.0131 68.2556 57.1872 69.0815 57.1872 70.1004C57.1872 71.1192 58.0131 71.9451 59.0319 71.9451Z" fill="#222222"/>
<path d="M64.5662 71.9451C65.585 71.9451 66.4109 71.1192 66.4109 70.1004C66.4109 69.0815 65.585 68.2556 64.5662 68.2556C63.5474 68.2556 62.7214 69.0815 62.7214 70.1004C62.7214 71.1192 63.5474 71.9451 64.5662 71.9451Z" fill="#222222"/>
<path d="M71.4208 91.3152H13.4376C12.0754 91.3152 10.769 91.8464 9.80574 92.792C8.8425 93.7376 8.30136 95.0201 8.30136 96.3574V124.09C8.30136 125.428 8.8425 126.71 9.80574 127.656C10.769 128.601 12.0754 129.133 13.4376 129.133H71.4208C72.783 129.133 74.0894 128.601 75.0527 127.656C76.0159 126.71 76.5571 125.428 76.5571 124.09V96.3574C76.5571 95.0201 76.0159 93.7376 75.0527 92.792C74.0895 91.8464 72.783 91.3152 71.4208 91.3152H71.4208ZM12.0031 94.7547C12.1176 94.7344 14.8326 94.2808 17.0809 95.6089C19.329 96.9366 20.1928 99.5042 20.2284 99.6128L20.3192 99.8896L20.0275 99.9404C19.6113 100.004 19.1905 100.035 18.7692 100.031C17.4329 100.056 16.1141 99.7299 14.9495 99.0861C12.7014 97.7585 11.8378 95.191 11.8022 95.0824L11.7113 94.8055L12.0031 94.7547ZM24.5897 120.503H14.2479C13.4936 120.503 12.7702 120.209 12.2369 119.685C11.7035 119.162 11.4039 118.452 11.4039 117.711C11.4039 116.971 11.7035 116.261 12.2369 115.737C12.7702 115.213 13.4936 114.919 14.2479 114.919H24.5897C25.3439 114.919 26.0673 115.213 26.6007 115.737C27.134 116.261 27.4336 116.971 27.4336 117.711C27.4336 118.452 27.134 119.162 26.6007 119.685C26.0673 120.209 25.3439 120.503 24.5897 120.503ZM71.6447 119.995C71.6423 120.803 71.3147 121.576 70.7333 122.146C70.152 122.717 69.3643 123.039 68.5422 123.041H60.7859C59.9638 123.039 59.176 122.717 58.5947 122.146C58.0134 121.576 57.6857 120.803 57.6833 119.995V115.427C57.6857 114.62 58.0134 113.847 58.5947 113.276C59.176 112.705 59.9638 112.384 60.7859 112.381H68.5422C69.3643 112.384 70.152 112.705 70.7333 113.276C71.3147 113.847 71.6423 114.62 71.6447 115.427L71.6447 119.995Z" fill="#6C63FF"/>
<path d="M62.8368 119.909H59.8391C59.625 119.909 59.4197 120.006 59.2684 120.179C59.117 120.352 59.032 120.586 59.032 120.831C59.032 121.076 59.117 121.31 59.2684 121.483C59.4197 121.656 59.625 121.753 59.8391 121.753H62.8368C63.0508 121.753 63.2561 121.656 63.4075 121.483C63.5588 121.31 63.6439 121.076 63.6439 120.831C63.6439 120.586 63.5588 120.352 63.4075 120.179C63.2561 120.006 63.0508 119.909 62.8368 119.909Z" fill="#3F3D56"/>
<path d="M68.371 119.909H65.3733C65.1592 119.909 64.954 120.006 64.8026 120.179C64.6513 120.352 64.5662 120.586 64.5662 120.831C64.5662 121.076 64.6513 121.31 64.8026 121.483C64.954 121.656 65.1592 121.753 65.3733 121.753H68.371C68.5851 121.753 68.7903 121.656 68.9417 121.483C69.0931 121.31 69.1781 121.076 69.1781 120.831C69.1781 120.586 69.0931 120.352 68.9417 120.179C68.7903 120.006 68.5851 119.909 68.371 119.909Z" fill="#3F3D56"/>
<path d="M62.8368 117.142H59.8391C59.625 117.142 59.4197 117.239 59.2684 117.412C59.117 117.585 59.032 117.819 59.032 118.064C59.032 118.309 59.117 118.543 59.2684 118.716C59.4197 118.889 59.625 118.986 59.8391 118.986H62.8368C63.0508 118.986 63.2561 118.889 63.4075 118.716C63.5588 118.543 63.6439 118.309 63.6439 118.064C63.6439 117.819 63.5588 117.585 63.4075 117.412C63.2561 117.239 63.0508 117.142 62.8368 117.142Z" fill="#3F3D56"/>
<path d="M68.371 117.142H65.3733C65.1593 117.142 64.954 117.239 64.8026 117.412C64.6513 117.585 64.5662 117.819 64.5662 118.064C64.5662 118.309 64.6513 118.543 64.8026 118.716C64.954 118.889 65.1593 118.986 65.3733 118.986H68.371C68.5851 118.986 68.7903 118.889 68.9417 118.716C69.0931 118.543 69.1781 118.309 69.1781 118.064C69.1781 117.819 69.0931 117.585 68.9417 117.412C68.7903 117.239 68.5851 117.142 68.371 117.142H68.371Z" fill="#3F3D56"/>
<path d="M62.8368 115.297H59.8391C59.625 115.297 59.4197 115.394 59.2684 115.567C59.117 115.74 59.032 115.975 59.032 116.219C59.032 116.464 59.117 116.698 59.2684 116.871C59.4197 117.044 59.625 117.142 59.8391 117.142H62.8368C63.0508 117.142 63.2561 117.044 63.4075 116.871C63.5588 116.698 63.6439 116.464 63.6439 116.219C63.6439 115.975 63.5588 115.74 63.4075 115.567C63.2561 115.394 63.0508 115.297 62.8368 115.297Z" fill="#3F3D56"/>
<path d="M68.371 115.297H65.3733C65.1593 115.297 64.954 115.394 64.8026 115.567C64.6513 115.74 64.5662 115.975 64.5662 116.219C64.5662 116.464 64.6513 116.698 64.8026 116.871C64.954 117.044 65.1593 117.142 65.3733 117.142H68.371C68.5851 117.142 68.7903 117.044 68.9417 116.871C69.0931 116.698 69.1781 116.464 69.1781 116.219C69.1781 115.975 69.0931 115.74 68.9417 115.567C68.7903 115.394 68.5851 115.297 68.371 115.297H68.371Z" fill="#3F3D56"/>
<path d="M110.685 102.384H103.306V109.763H110.685V102.384Z" fill="#E6E6E6"/>
<path d="M95.0046 106.073H106.073V118.986H95.0046V106.073ZM105.592 106.634H95.4858V118.425H105.592V106.634Z" fill="#3F3D56"/>
<path d="M147.579 177.096H144.455L142.968 164.183H147.58L147.579 177.096Z" fill="#FFB8B8"/>
<path d="M142.276 176.174H148.502V179.863H138.356C138.356 178.885 138.769 177.946 139.504 177.254C140.24 176.562 141.237 176.174 142.276 176.174Z" fill="#2F2E41"/>
<path d="M164.182 177.096H161.057L159.571 164.183H164.183L164.182 177.096Z" fill="#FFB8B8"/>
<path d="M158.879 176.174H165.105V179.863H154.959C154.959 178.885 155.372 177.946 156.107 177.254C156.842 176.562 157.839 176.174 158.879 176.174Z" fill="#2F2E41"/>
<path d="M131.476 131.517C131.239 131.163 131.081 130.761 131.014 130.339C130.947 129.916 130.972 129.485 131.088 129.073C131.203 128.662 131.407 128.281 131.684 127.958C131.961 127.635 132.304 127.377 132.69 127.203L143.906 95.927L149.425 98.9742L136.619 128.863C136.865 129.538 136.858 130.282 136.599 130.952C136.34 131.623 135.846 132.174 135.213 132.501C134.579 132.828 133.848 132.909 133.16 132.727C132.471 132.546 131.872 132.115 131.476 131.517Z" fill="#FFB8B8"/>
<path d="M161.821 137.045C161.468 136.838 161.164 136.554 160.929 136.214C160.695 135.874 160.537 135.485 160.465 135.075C160.394 134.665 160.411 134.244 160.516 133.842C160.62 133.44 160.81 133.066 161.071 132.747L157.726 100.539L163.773 100.821L165.163 132.502C165.659 132.987 165.963 133.64 166.018 134.339C166.074 135.037 165.877 135.732 165.465 136.292C165.053 136.852 164.454 137.238 163.783 137.377C163.111 137.516 162.413 137.398 161.821 137.045V137.045Z" fill="#FFB8B8"/>
<path d="M152.192 90.3927C155.758 90.3927 158.648 87.7085 158.648 84.3973C158.648 81.0861 155.758 78.4019 152.192 78.4019C148.626 78.4019 145.735 81.0861 145.735 84.3973C145.735 87.7085 148.626 90.3927 152.192 90.3927Z" fill="#FFB8B8"/>
<path d="M162.175 129.133H142.968L142.991 128.981C143.026 128.755 146.414 106.264 143.915 98.9056C143.664 98.1825 143.686 97.391 143.977 96.6834C144.268 95.9758 144.806 95.4021 145.489 95.0728H145.489C149.062 93.3684 155.919 91.2696 161.706 96.3631C162.558 97.1249 163.223 98.0771 163.649 99.1442C164.075 100.211 164.249 101.364 164.16 102.512L162.175 129.133Z" fill="#CCCCCC"/>
<path d="M146.694 109.763L137.434 107.923L141.774 97.8514C142.034 96.8758 142.678 96.041 143.566 95.53C144.453 95.019 145.512 94.8735 146.508 95.1255C147.505 95.3775 148.359 96.0064 148.883 96.8742C149.407 97.742 149.558 98.7779 149.304 99.7546L146.694 109.763Z" fill="#CCCCCC"/>
<path d="M157.397 113.452L156.875 100.923C156.479 98.5678 157.768 96.3413 159.749 95.9774C161.731 95.6148 163.666 97.2483 164.064 99.6209L166.027 111.328L157.397 113.452Z" fill="#CCCCCC"/>
<path d="M161.935 128.21C165.217 140.312 165.575 155.7 164.689 172.484L160.283 171.951L152.297 139.945L147.89 172.484L142.933 172.217C141.452 154.606 140.01 139.488 142.382 129.544L161.935 128.21Z" fill="#2F2E41"/>
<path d="M156.554 89.705C155.376 91.0388 153.189 90.3228 153.035 88.5006C153.023 88.3592 153.024 88.2168 153.038 88.0755C153.117 87.2683 153.556 86.5356 153.451 85.6833C153.427 85.4712 153.353 85.2691 153.235 85.0961C152.296 83.7599 150.093 85.6937 149.207 84.4841C148.663 83.7424 149.302 82.5747 148.885 81.7457C148.335 80.6516 146.705 81.1913 145.683 80.5921C144.546 79.9255 144.614 78.0711 145.363 76.9431C146.276 75.5675 147.876 74.8335 149.457 74.7277C151.037 74.622 152.607 75.0761 154.082 75.6874C155.759 76.3819 157.421 77.3417 158.453 78.9086C159.708 80.8143 159.828 83.3762 159.201 85.6045C158.819 86.96 157.516 88.6158 156.554 89.705Z" fill="#2F2E41"/>
<path d="M201.733 179.863H99.8838C99.8129 179.863 99.7449 179.814 99.6948 179.728C99.6446 179.641 99.6165 179.524 99.6165 179.402C99.6165 179.28 99.6446 179.162 99.6948 179.076C99.7449 178.989 99.8129 178.941 99.8838 178.941H201.733C201.804 178.941 201.872 178.989 201.922 179.076C201.972 179.162 202 179.28 202 179.402C202 179.524 201.972 179.641 201.922 179.728C201.872 179.814 201.804 179.863 201.733 179.863Z" fill="#3F3D56"/>
</svg>
