<svg width="213" height="153" viewBox="0 0 213 153" fill="none" xmlns="http://www.w3.org/2000/svg">
<path d="M206.703 44.6887H90.1464C88.5057 44.6902 86.9327 45.3426 85.7725 46.5028C84.6124 47.6629 83.96 49.2359 83.9585 50.8766V69.7659C83.96 71.4066 84.6124 72.9797 85.7725 74.1398C86.9327 75.2999 88.5057 75.9523 90.1464 75.9538H206.703C208.343 75.9523 209.916 75.2999 211.077 74.1398C212.237 72.9797 212.889 71.4066 212.891 69.7659V50.8766C212.889 49.2359 212.237 47.6629 211.077 46.5028C209.916 45.3426 208.343 44.6902 206.703 44.6887Z" fill="#535353"/>
<path d="M46.7422 152.5H0.37097C0.272582 152.5 0.178219 152.461 0.108649 152.391C0.0390783 152.322 0 152.227 0 152.129C0 152.03 0.0390783 151.936 0.108649 151.866C0.178219 151.797 0.272582 151.758 0.37097 151.758H46.7422C46.8406 151.758 46.9349 151.797 47.0045 151.866C47.0741 151.936 47.1132 152.03 47.1132 152.129C47.1132 152.227 47.0741 152.322 47.0045 152.391C46.9349 152.461 46.8406 152.5 46.7422 152.5Z" fill="#3F3D56"/>
<path d="M39.9338 36.3472C39.5038 36.6187 39.1385 36.9811 38.8637 37.409C38.5889 37.8369 38.4112 38.3198 38.3432 38.8238C38.2752 39.3278 38.3186 39.8406 38.4702 40.326C38.6218 40.8114 38.878 41.2577 39.2208 41.6333L35.8496 48.8322L39.7247 51.9479L44.3427 41.7148C44.9356 41.0972 45.2814 40.2835 45.3146 39.4279C45.3477 38.5723 45.0658 37.7343 44.5224 37.0727C43.9789 36.4111 43.2117 35.9718 42.366 35.8381C41.5203 35.7044 40.6549 35.8855 39.9338 36.3472V36.3472Z" fill="#FFB8B8"/>
<path d="M20.5607 39.2682C21.6276 38.6274 22.9003 38.4217 24.1147 38.694C25.3292 38.9662 26.3923 39.6955 27.0835 40.7305L33.9816 51.0591L36.3764 45.7797C36.5259 45.45 36.7908 45.1864 37.1212 45.0384C37.4515 44.8904 37.8246 44.8683 38.1701 44.9763L41.7846 46.1054C41.9735 46.1643 42.1486 46.2605 42.2997 46.3881C42.4509 46.5158 42.5749 46.6724 42.6647 46.8487C42.7544 47.025 42.808 47.2175 42.8222 47.4148C42.8365 47.6121 42.8111 47.8103 42.7477 47.9977L40.2734 55.3037C39.9605 56.2279 39.4375 57.0669 38.7457 57.755C38.0539 58.4431 37.212 58.9615 36.2861 59.2694C35.3602 59.5774 34.3756 59.6665 33.4095 59.5299C32.4433 59.3933 31.522 59.0346 30.7178 58.482C30.342 58.2238 29.9953 57.9256 29.6838 57.5927L19.5183 46.7309C19.0246 46.2035 18.6552 45.5723 18.4371 44.8836C18.2189 44.1949 18.1576 43.4662 18.2575 42.7507C18.3575 42.0352 18.6162 41.3511 19.0147 40.7486C19.4132 40.146 19.9415 39.6402 20.5607 39.2682Z" fill="#CCCCCC"/>
<path d="M42.8759 28.5962C43.0611 28.6008 43.2368 28.6787 43.3645 28.8129C43.4921 28.9471 43.5613 29.1265 43.5567 29.3116L43.4972 31.7091L43.6174 31.72L43.5742 33.3483L43.4568 33.3337L43.2434 41.9225C43.2361 42.2165 43.1221 42.4978 42.9227 42.7139C42.7233 42.9299 42.452 43.0661 42.1596 43.0969L36.6982 43.6718C36.5653 43.6858 36.4308 43.6706 36.3044 43.6271C36.1779 43.5837 36.0625 43.5131 35.9662 43.4203C35.8699 43.3276 35.7951 43.2149 35.747 43.0901C35.6989 42.9654 35.6786 42.8316 35.6876 42.6982L36.516 30.4683C36.5333 30.2114 36.6376 29.9681 36.8116 29.7784C36.9856 29.5886 37.219 29.4637 37.4734 29.4242L42.7456 28.6051C42.7887 28.5981 42.8323 28.5951 42.8759 28.5962Z" fill="#3F3D56"/>
<path d="M38.6493 29.869L41.4209 29.4384C41.4708 29.4307 41.5168 29.4067 41.5517 29.3702C41.5865 29.3337 41.6084 29.2867 41.6139 29.2366C41.6201 29.1797 41.6449 29.1265 41.6844 29.0852C41.7239 29.0438 41.7759 29.0167 41.8325 29.0079L42.4163 28.9172C42.4959 28.9048 42.5774 28.9101 42.6548 28.9326C42.7322 28.9551 42.8037 28.9943 42.8643 29.0475C42.9249 29.1007 42.9731 29.1665 43.0054 29.2404C43.0378 29.3142 43.0536 29.3942 43.0516 29.4748L42.7516 41.9272C42.7478 42.0818 42.6874 42.2295 42.5816 42.3423C42.4759 42.455 42.3324 42.5249 42.1784 42.5386L36.7211 43.0238C36.6515 43.03 36.5813 43.0211 36.5155 42.9977C36.4496 42.9743 36.3896 42.937 36.3395 42.8882C36.2894 42.8395 36.2504 42.7806 36.2251 42.7154C36.1999 42.6502 36.189 42.5803 36.1933 42.5106L36.9296 30.3937C36.9405 30.2151 37.0121 30.0457 37.1325 29.9135C37.2529 29.7812 37.415 29.6941 37.5917 29.6667L38.2071 29.5711C38.2297 29.6673 38.2878 29.7514 38.3698 29.8067C38.4518 29.8619 38.5516 29.8842 38.6493 29.869Z" fill="#262626"/>
<path d="M25.7905 147.997L30.0315 147.997L32.0484 131.638L25.7891 131.639L25.7905 147.997Z" fill="#FFB8B8"/>
<path d="M38.2109 151.934L24.8821 151.935L24.8816 146.785L33.0607 146.785C33.737 146.785 34.4066 146.918 35.0315 147.177C35.6563 147.435 36.224 147.815 36.7023 148.293C37.1805 148.771 37.5599 149.339 37.8188 149.963C38.0776 150.588 38.2109 151.258 38.2109 151.934L38.2109 151.934Z" fill="#2F2E41"/>
<path d="M12.7564 147.997L16.9973 147.997L19.0143 131.638L12.7549 131.639L12.7564 147.997Z" fill="#FFB8B8"/>
<path d="M25.1768 151.934L11.8479 151.935L11.8474 146.785L20.0265 146.785C21.3923 146.785 22.7022 147.327 23.6681 148.293C24.634 149.258 25.1766 150.568 25.1768 151.934L25.1768 151.934Z" fill="#2F2E41"/>
<path d="M25.1763 33.7086C30.2084 33.7086 34.2877 29.6293 34.2877 24.5972C34.2877 19.5652 30.2084 15.4858 25.1763 15.4858C20.1443 15.4858 16.0649 19.5652 16.0649 24.5972C16.0649 29.6293 20.1443 33.7086 25.1763 33.7086Z" fill="#FFB8B8"/>
<path d="M29.8659 48.9748C29.7915 46.6323 29.132 44.3456 27.9476 42.3232C26.7631 40.3008 25.0914 38.6069 23.0847 37.396C20.7308 36.0089 18.1542 35.468 16.1044 37.5178C14.8735 38.7796 13.8878 40.259 13.1975 41.8809C11.3013 46.3005 11.1772 51.2801 12.851 55.7887L17.7298 69.2675L29.0218 70.4908C29.2339 70.5137 29.4485 70.4907 29.6509 70.4232C29.8533 70.3558 30.0387 70.2455 30.1946 70.0998C30.3505 69.9542 30.4732 69.7766 30.5543 69.5793C30.6353 69.3819 30.6729 69.1694 30.6643 68.9563L29.8659 48.9748Z" fill="#2F2E41"/>
<path d="M18.4456 67.6077C18.4456 67.6077 10.0093 70.7571 12.2149 84.093C14.1942 96.0599 12.6213 135.78 12.2775 143.809C12.2611 144.192 12.3935 144.566 12.6469 144.853C12.9003 145.141 13.2551 145.319 13.6368 145.35L18.5615 145.76C18.9472 145.793 19.3302 145.673 19.6288 145.427C19.9274 145.18 20.118 144.827 20.1599 144.442L22.7032 121.081C22.7132 120.989 22.757 120.905 22.826 120.843C22.895 120.782 22.9843 120.749 23.0765 120.75C23.1687 120.751 23.2572 120.787 23.3247 120.85C23.3922 120.912 23.4339 120.998 23.4417 121.09L25.3368 143.569C25.3688 143.948 25.5448 144.3 25.8287 144.553C26.1125 144.805 26.4825 144.939 26.8624 144.927L30.9988 144.797C31.1937 144.79 31.3855 144.746 31.5632 144.666C31.7409 144.585 31.901 144.471 32.0344 144.328C32.1678 144.186 32.2718 144.019 32.3405 143.836C32.4093 143.654 32.4413 143.46 32.4349 143.265L29.9983 69.1653L18.4456 67.6077Z" fill="#2F2E41"/>
<path d="M27.005 23.997C30.0523 25.2468 33.9438 23.7869 35.4171 20.8412C36.8904 17.8955 35.7244 13.906 32.8967 12.2174C30.0689 10.5287 26.0037 11.3943 24.1091 14.0884C22.5679 11.3118 18.5305 10.604 15.7584 12.1532C12.9864 13.7025 11.4765 16.9476 11.2974 20.1182C11.1183 23.2887 12.0822 26.4122 13.2581 29.3621C15.1601 34.1337 21.2833 36.7029 26.0207 34.7171C23.8519 31.487 24.28 26.76 27.005 23.997Z" fill="#2F2E41"/>
<path d="M39.2845 37.4517C39.2034 37.4519 39.1245 37.4257 39.0596 37.377L39.0556 37.374L38.2085 36.7259C38.1692 36.6959 38.1363 36.6584 38.1116 36.6155C38.0868 36.5727 38.0708 36.5255 38.0643 36.4765C38.0578 36.4275 38.061 36.3777 38.0738 36.3299C38.0866 36.2821 38.1087 36.2374 38.1387 36.1981C38.1688 36.1589 38.2063 36.126 38.2491 36.1012C38.2919 36.0765 38.3392 36.0604 38.3882 36.054C38.4372 36.0475 38.487 36.0507 38.5348 36.0635C38.5825 36.0763 38.6273 36.0983 38.6665 36.1284L39.2153 36.5492L40.5119 34.8576C40.542 34.8183 40.5795 34.7854 40.6222 34.7607C40.665 34.736 40.7123 34.7199 40.7613 34.7134C40.8103 34.707 40.86 34.7102 40.9078 34.723C40.9555 34.7358 41.0003 34.7578 41.0395 34.7879L41.0396 34.788L41.0316 34.7991L41.0398 34.788C41.1189 34.8488 41.1707 34.9385 41.1838 35.0374C41.1968 35.1363 41.1701 35.2364 41.1094 35.3157L39.5843 37.3045C39.549 37.3503 39.5037 37.3874 39.4517 37.4128C39.3998 37.4383 39.3427 37.4515 39.2849 37.4513L39.2845 37.4517Z" fill="#6C63FF"/>
<path d="M206.812 0H90.2558C88.6151 0.00148617 87.0421 0.653904 85.8819 1.81404C84.7218 2.97417 84.0694 4.54721 84.0679 6.18789V25.0772C84.0694 26.7179 84.7218 28.2909 85.8819 29.4511C87.0421 30.6112 88.6151 31.2636 90.2558 31.2651H206.812C208.453 31.2636 210.026 30.6112 211.186 29.4511C212.346 28.2909 212.998 26.7179 213 25.0772V6.18789C212.998 4.54721 212.346 2.97416 211.186 1.81403C210.026 0.653899 208.453 0.00148616 206.812 0ZM212.349 25.0772C212.347 26.545 211.763 27.952 210.725 28.9898C209.687 30.0277 208.28 30.6117 206.812 30.6137H90.2558C88.788 30.6117 87.381 30.0277 86.3431 28.9898C85.3053 27.952 84.7213 26.545 84.7192 25.0772V6.18789C84.7213 4.72014 85.3053 3.31311 86.3431 2.27526C87.381 1.23741 88.788 0.653431 90.2558 0.651354H206.812C208.28 0.653431 209.687 1.23741 210.725 2.27526C211.763 3.31311 212.347 4.72014 212.349 6.18789V25.0772Z" fill="#3F3D56"/>
<path d="M113.975 26.4027C111.845 26.4027 109.763 25.7711 107.992 24.5877C106.221 23.4042 104.84 21.7222 104.025 19.7542C103.21 17.7863 102.996 15.6207 103.412 13.5315C103.828 11.4424 104.853 9.5233 106.36 8.01706C107.866 6.51083 109.785 5.48508 111.874 5.0695C113.963 4.65393 116.129 4.86721 118.097 5.68237C120.065 6.49753 121.747 7.87796 122.93 9.64909C124.114 11.4202 124.745 13.5025 124.745 15.6326C124.742 18.488 123.606 21.2255 121.587 23.2446C119.568 25.2637 116.831 26.3995 113.975 26.4027Z" fill="#6C63FF"/>
<path d="M190.909 24.4259H134.929C134.238 24.4259 133.575 24.1514 133.086 23.6628C132.598 23.1742 132.323 22.5115 132.323 21.8205C132.323 21.1295 132.598 20.4668 133.086 19.9782C133.575 19.4896 134.238 19.2151 134.929 19.2151H190.909C191.6 19.2151 192.263 19.4896 192.751 19.9782C193.24 20.4668 193.514 21.1295 193.514 21.8205C193.514 22.5115 193.24 23.1742 192.751 23.6628C192.263 24.1514 191.6 24.4259 190.909 24.4259Z" fill="#353535"/>
<path d="M153.456 13.3527H134.929C134.238 13.3527 133.575 13.0782 133.086 12.5896C132.598 12.101 132.323 11.4383 132.323 10.7473C132.323 10.0563 132.598 9.39358 133.086 8.90497C133.575 8.41636 134.238 8.14185 134.929 8.14185H153.456C154.147 8.14185 154.81 8.41636 155.298 8.90497C155.787 9.39358 156.061 10.0563 156.061 10.7473C156.061 11.4383 155.787 12.101 155.298 12.5896C154.81 13.0782 154.147 13.3527 153.456 13.3527Z" fill="#353535"/>
<path d="M113.425 19.4209C113.158 19.4214 112.898 19.3349 112.684 19.1746L112.671 19.1647L109.879 17.0293C109.75 16.9303 109.641 16.8067 109.559 16.6656C109.478 16.5245 109.424 16.3687 109.403 16.207C109.381 16.0454 109.392 15.8811 109.434 15.7235C109.476 15.566 109.549 15.4183 109.648 15.2888C109.747 15.1594 109.871 15.0508 110.012 14.9693C110.154 14.8878 110.309 14.8349 110.471 14.8136C110.633 14.7924 110.797 14.8033 110.955 14.8456C111.112 14.8879 111.26 14.9609 111.389 15.0603L113.197 16.4468L117.47 10.8728C117.569 10.7435 117.692 10.6351 117.833 10.5536C117.974 10.4721 118.13 10.4192 118.291 10.3979C118.453 10.3766 118.617 10.3872 118.774 10.4293C118.931 10.4714 119.079 10.5441 119.208 10.6431L119.208 10.6434L119.182 10.6802L119.209 10.6434C119.47 10.8438 119.64 11.1394 119.683 11.4654C119.726 11.7914 119.638 12.1211 119.439 12.3823L114.413 18.9357C114.297 19.0867 114.147 19.2089 113.976 19.2927C113.805 19.3766 113.617 19.42 113.426 19.4194L113.425 19.4209Z" fill="#262626"/>
<path d="M156.731 50.8228H40.1747C38.534 50.8242 36.961 51.4767 35.8008 52.6368C34.6407 53.7969 33.9883 55.37 33.9868 57.0106V75.9C33.9883 77.5406 34.6407 79.1137 35.8008 80.2738C36.961 81.434 38.534 82.0864 40.1747 82.0879H156.731C158.372 82.0864 159.945 81.434 161.105 80.2738C162.265 79.1137 162.917 77.5406 162.919 75.9V57.0106C162.917 55.37 162.265 53.7969 161.105 52.6368C159.945 51.4767 158.372 50.8242 156.731 50.8228Z" fill="#262626"/>
<path d="M156.731 50.8228H40.1747C38.534 50.8242 36.961 51.4767 35.8008 52.6368C34.6407 53.7969 33.9883 55.37 33.9868 57.0106V75.9C33.9883 77.5406 34.6407 79.1137 35.8008 80.2738C36.961 81.434 38.534 82.0864 40.1747 82.0879H156.731C158.372 82.0864 159.945 81.434 161.105 80.2738C162.265 79.1137 162.917 77.5406 162.919 75.9V57.0106C162.917 55.37 162.265 53.7969 161.105 52.6368C159.945 51.4767 158.372 50.8242 156.731 50.8228ZM162.268 75.9C162.265 77.3677 161.681 78.7748 160.644 79.8126C159.606 80.8505 158.199 81.4344 156.731 81.4365H40.1747C38.707 81.4344 37.2999 80.8505 36.2621 79.8126C35.2242 78.7748 34.6402 77.3677 34.6382 75.9V57.0106C34.6402 55.5429 35.2242 54.1359 36.2621 53.098C37.2999 52.0602 38.7069 51.4762 40.1747 51.4741H156.731C158.199 51.4762 159.606 52.0602 160.644 53.098C161.681 54.1359 162.265 55.5429 162.268 57.0106V75.9Z" fill="#3F3D56"/>
<path d="M63.8942 77.2255C61.7641 77.2255 59.6818 76.5938 57.9106 75.4104C56.1395 74.227 54.7591 72.545 53.9439 70.577C53.1287 68.609 52.9154 66.4435 53.331 64.3543C53.7465 62.2651 54.7723 60.346 56.2785 58.8398C57.7847 57.3336 59.7037 56.3078 61.7929 55.8923C63.8821 55.4767 66.0476 55.69 68.0156 56.5051C69.9836 57.3203 71.6657 58.7007 72.8491 60.4718C74.0325 62.243 74.6642 64.3253 74.6642 66.4554C74.6609 69.3108 73.5252 72.0483 71.5062 74.0674C69.4871 76.0865 66.7496 77.2222 63.8942 77.2255Z" fill="#6C63FF"/>
<path d="M140.828 75.2487H84.8481C84.1571 75.2487 83.4944 74.9742 83.0058 74.4856C82.5172 73.997 82.2427 73.3343 82.2427 72.6433C82.2427 71.9523 82.5172 71.2896 83.0058 70.801C83.4944 70.3124 84.1571 70.0378 84.8481 70.0378H140.828C141.519 70.0378 142.182 70.3124 142.671 70.801C143.159 71.2896 143.434 71.9523 143.434 72.6433C143.434 73.3343 143.159 73.997 142.671 74.4856C142.182 74.9742 141.519 75.2487 140.828 75.2487Z" fill="#353535"/>
<path d="M103.375 64.1757H84.8481C84.5059 64.1757 84.1671 64.1083 83.851 63.9774C83.5349 63.8464 83.2477 63.6545 83.0058 63.4126C82.7638 63.1707 82.5719 62.8834 82.441 62.5673C82.3101 62.2512 82.2427 61.9124 82.2427 61.5703C82.2427 61.2281 82.3101 60.8893 82.441 60.5732C82.5719 60.2571 82.7638 59.9699 83.0058 59.728C83.2477 59.486 83.5349 59.2941 83.851 59.1632C84.1671 59.0322 84.5059 58.9648 84.8481 58.9648H103.375C104.066 58.9648 104.729 59.2394 105.218 59.728C105.706 60.2166 105.981 60.8793 105.981 61.5703C105.981 62.2613 105.706 62.924 105.218 63.4126C104.729 63.9012 104.066 64.1757 103.375 64.1757Z" fill="#353535"/>
<path d="M63.3442 70.2437C63.077 70.2441 62.8169 70.1577 62.6031 69.9974L62.5898 69.9874L59.7984 67.852C59.6688 67.753 59.56 67.6294 59.4782 67.4883C59.3965 67.3473 59.3433 67.1914 59.3218 67.0298C59.3004 66.8681 59.311 66.7038 59.353 66.5463C59.3951 66.3887 59.4678 66.241 59.5671 66.1116C59.6663 65.9822 59.79 65.8736 59.9313 65.7921C60.0725 65.7105 60.2284 65.6576 60.3901 65.6364C60.5518 65.6152 60.716 65.626 60.8735 65.6684C61.031 65.7107 61.1786 65.7837 61.3079 65.8831L63.1159 67.2696L67.3885 61.6955C67.4876 61.5663 67.6112 61.4578 67.7522 61.3764C67.8931 61.2949 68.0488 61.242 68.2102 61.2206C68.3717 61.1993 68.5357 61.21 68.693 61.2521C68.8503 61.2942 68.9978 61.3668 69.1271 61.4659L69.1274 61.4662L69.1009 61.503L69.1281 61.4662C69.3889 61.6665 69.5594 61.9622 69.6024 62.2881C69.6454 62.6141 69.5573 62.9439 69.3575 63.205L64.332 69.7584C64.2157 69.9094 64.0662 70.0316 63.8951 70.1155C63.724 70.1994 63.5359 70.2428 63.3453 70.2422L63.3442 70.2437Z" fill="#262626"/>
<path d="M36.3954 55.0839C35.927 54.8858 35.4209 54.7928 34.9127 54.8114C34.4045 54.8301 33.9066 54.96 33.454 55.1919C33.0014 55.4238 32.6052 55.7521 32.2932 56.1537C31.9813 56.5554 31.7611 57.0205 31.6484 57.5164L23.8134 58.8586L23.4678 63.8188L34.5057 61.768C35.3513 61.9022 36.2168 61.7215 36.9381 61.2603C37.6594 60.799 38.1865 60.0892 38.4194 59.2653C38.6523 58.4414 38.575 57.5606 38.2019 56.79C37.8289 56.0193 37.1861 55.4123 36.3954 55.0838L36.3954 55.0839Z" fill="#FFB8B8"/>
<path d="M22.9368 40.8466C24.0721 41.3567 24.9675 42.2841 25.4373 43.4366C25.9072 44.5891 25.9154 45.8783 25.4603 47.0367L20.9186 58.5969L26.6203 57.5489C26.9763 57.4834 27.344 57.5504 27.6541 57.7372C27.9642 57.9239 28.1953 58.2176 28.304 58.5629L29.4406 62.175C29.5 62.3637 29.521 62.5624 29.5025 62.7594C29.484 62.9563 29.4262 63.1476 29.3327 63.3219C29.2392 63.4963 29.1117 63.6501 28.9579 63.7745C28.804 63.8988 28.6268 63.9912 28.4368 64.0461L21.0259 66.1858C20.0885 66.4565 19.101 66.5062 18.1411 66.331C17.1812 66.1559 16.275 65.7606 15.4936 65.1763C14.7122 64.592 14.0768 63.8345 13.6374 62.9633C13.198 62.0921 12.9665 61.1309 12.961 60.1551C12.9585 59.6992 13.0054 59.2443 13.1008 58.7985L16.2147 44.2514C16.3659 43.5449 16.6732 42.8813 17.1141 42.309C17.555 41.7367 18.1183 41.2703 18.7628 40.9438C19.4072 40.6174 20.1166 40.4393 20.8388 40.4225C21.561 40.4056 22.2779 40.5506 22.9368 40.8466Z" fill="#CCCCCC"/>
</svg>
